<svg version="1.2" xmlns="http://www.w3.org/2000/svg" viewBox="0 0 54 43" width="54" height="43"><defs><clipPath clipPathUnits="userSpaceOnUse" id="cp1"><path d="m-144-49h1728v1117h-1728z"/></clipPath></defs><style>.a{fill:#fff;stroke:#ededed;stroke-width:0}</style><g clip-path="url(#cp1)"><path fill-rule="evenodd" class="a" d="m53.4 35.6q0 0.1 0 0.1 0 0-0.1 0.1c-4 3.1-8.5 5.5-13.3 7q0 0.1-0.1 0 0 0-0.1 0-1.5-2.2-2.7-4.7 0 0 0 0 0-0.1 0-0.1 0-0.1 0-0.1 0.1 0 0.1 0 2.2-0.9 4.2-2.1 0 0 0-0.1 0 0 0-0.1 0 0 0 0 0-0.1 0-0.1-0.5-0.3-0.9-0.7 0 0 0 0-0.1 0-0.1 0c-8.6 4.2-18.1 4.2-26.8 0q-0.1 0-0.1 0 0 0-0.1 0-0.4 0.4-0.8 0.7 0 0-0.1 0.1 0 0 0 0 0 0.1 0.1 0.1 0 0.1 0 0.1 2 1.2 4.2 2.1 0 0 0 0 0.1 0 0.1 0.1 0 0 0 0.1 0 0 0 0-1.2 2.5-2.8 4.7 0 0 0 0-0.1 0.1-0.1 0c-4.8-1.5-9.3-3.9-13.4-7q0-0.1 0-0.1 0 0 0-0.1c-1-10.4 0.9-21 7.8-31.8q0.1-0.1 0.1-0.1c3.5-1.7 7.1-2.9 10.9-3.5q0-0.1 0.1 0 0 0 0 0 0.8 1.5 1.4 3c4.1-0.7 8.2-0.7 12.2 0q0.6-1.5 1.3-3 0.1 0 0.1 0 0.1-0.1 0.1 0c3.8 0.6 7.4 1.8 10.9 3.5q0 0 0 0.1c6.1 9.3 9 19.8 7.9 31.8zm-30.4-12c0-3.1-2.1-5.6-4.8-5.6-2.7 0-4.8 2.5-4.8 5.6 0 3.1 2.1 5.7 4.8 5.7 2.6 0 4.8-2.6 4.8-5.7zm17.7 0c0-3.1-2.1-5.6-4.8-5.6-2.7 0-4.8 2.5-4.8 5.6 0 3.1 2.1 5.7 4.8 5.7 2.7 0 4.8-2.6 4.8-5.7z"/></g></svg>