<?xml version="1.0" encoding="utf-8"?>
<!-- Generator: Adobe Illustrator 26.0.1, SVG Export Plug-In . SVG Version: 6.00 Build 0)  -->
<svg version="1.1" id="Layer_1" xmlns="http://www.w3.org/2000/svg" xmlns:xlink="http://www.w3.org/1999/xlink" x="0px" y="0px"
	 viewBox="0 0 425.2 98.9" style="enable-background:new 0 0 425.2 98.9;" xml:space="preserve">
<style type="text/css">
	.st0{enable-background:new    ;}
	.st1{fill:#FFFFFF;}
	.st2{fill:url(#SVGID_1_);}
	.st3{fill:url(#SVGID_00000088118041532130033020000002322695558097179520_);}
</style>
<path d="M69.2,17.5"/>
<path d="M69.2,17.5"/>
<g class="st0">
	<path class="st1" d="M130.8,128.8h-26.4c-0.8,0-1.5,0.9-1.5,2v7.2c0,1.1,0.7,2,1.5,2h19.3c5.1,0,8.5,4.8,8.5,11.8
		c0,7.1-3.4,11.8-8.5,11.8H96.6v-6.3h27.8c0.8,0,1.5-0.9,1.5-2v-7c0-1.1-0.7-2-1.5-2h-19.3c-5.1,0-8.5-4.8-8.5-11.8v-0.2
		c0-7.1,3.4-11.8,8.5-11.8h25.7V128.8z"/>
</g>
<g class="st0">
	<path class="st1" d="M187.1,122.5l-12,41.2h-6.4l-8.7-30.1l-8.7,30.1h-6.4l-12-41.2h6.4l8.7,30.1l8.7-30.1h6.4l8.7,30.1l8.7-30.1
		H187.1z"/>
</g>
<g class="st0">
	<path class="st1" d="M196.9,122.6H215c5.2,0,8.8,4.9,8.8,12.2v16.7c0,7.3-3.5,12.2-8.8,12.2h-18.2c-5.2,0-8.8-4.9-8.8-12.2v-16.7
		C188.1,127.5,191.6,122.6,196.9,122.6z M217.4,155.3v-24.4c0-1.1-0.7-2-1.5-2H196c-0.8,0-1.5,0.9-1.5,2v24.4c0,1.1,0.7,2,1.5,2
		h19.9C216.7,157.4,217.4,156.5,217.4,155.3z"/>
	<path class="st1" d="M256.8,157.4v6.3h-29.3v-41.2h6.4v34.9H256.8z"/>
</g>
<g class="st0">
	<path class="st1" d="M265.5,130.9v9.1h19.9v6.3h-19.9v9c0,1.1,0.7,2,1.5,2h21.4v6.3h-20.5c-5.2,0-8.8-4.9-8.8-12.2v-16.7
		c0-7.3,3.5-12.2,8.8-12.2h20.5v6.3h-21.4C266.1,128.9,265.5,129.8,265.5,130.9z"/>
	<path class="st1" d="M340.5,134.8v16.7c0,7.3-3.5,12.2-8.8,12.2h-26.9v-41.1h26.9C337,122.6,340.5,127.5,340.5,134.8z M334.1,130.9
		c0-1.1-0.7-2-1.5-2h-21.4v28.5h21.4c0.8,0,1.5-0.9,1.5-2V130.9z"/>
	<path class="st1" d="M351,130.9v9.1H371v6.3H351v9c0,1.1,0.7,2,1.5,2h21.4v6.3h-20.5c-5.2,0-8.8-4.9-8.8-12.2v-16.7
		c0-7.3,3.5-12.2,8.8-12.2h20.5v6.3h-21.4C351.7,128.9,351,129.8,351,130.9z"/>
	<path class="st1" d="M398.8,143.1l14.6,20.6h-9L393,147.5l-11.5,16.1h-6.4l14.6-20.6l-14.6-20.6h9l11.5,16.1l11.5-16.1h6.4
		L398.8,143.1z"/>
</g>
<linearGradient id="SVGID_1_" gradientUnits="userSpaceOnUse" x1="184.9672" y1="34.22" x2="267.6872" y2="34.22" gradientTransform="matrix(1 0 0 -1 -4.83 81.86)">
	<stop  offset="0" style="stop-color:#DD1FFF"/>
	<stop  offset="1" style="stop-color:#5F8CFB"/>
</linearGradient>
<path class="st2" d="M236.6,22l-0.1,0.1l-0.2-0.1c-0.1,0.1-0.2,0.2-0.2,0.4c0,0,0,0,0,0.1c0.2,0.2,0,0.3,0,0.5c0,0.2,0,0.3,0.1,0.5
	c0,0.1,0.1,0.2,0.2,0.2c0.1,0.1,0.3,0.1,0.4,0.2l0.6,0.3c0,0,0.1,0,0.2,0s0.1,0.2,0.2,0.2s0.1,0.1,0.1,0.1c0.1,0.1,0.2,0.1,0.3,0.1
	c0.1,0,0.2,0,0.2,0.1l0,0c0.2,0,0.3,0.2,0.5,0.3h0.1c0.1,0,0.2,0,0.2,0.1c0.1,0.1,0.1,0.2,0.3,0.2s0.1,0,0.1,0.1
	c0,0.1,0.1,0.1,0.2,0.1c0.1,0,0.2,0.1,0.2,0.1c0,0,0,0.1,0,0.1c0,0,0.1,0,0.1,0c0.2,0,0.4,0.1,0.6,0.2l0.2,0.1c0,0,0.1,0,0.1,0.1
	c0.1,0.1,0.1,0.2,0.2,0.2c0.1,0.1,0.2,0.1,0.3,0.2c0.1,0.1,0.1,0.2,0.2,0.3c0.2-0.1,0.5,0,0.8,0c0.1,0,0.2,0,0.3,0s0.4-0.1,0.6,0
	c0.1,0,0.3,0,0.4,0c0.1,0,0.1,0,0.2,0c0.2,0,0.5,0,0.8,0c0,0,0.1,0,0.1,0s0.4,0.1,0.5,0.1c0.2,0,0.2,0.1,0.3,0c0,0,0.1,0,0.1,0
	c0.2,0,0.3,0.1,0.5,0.1c0.2,0,0.3,0,0.5,0c0.2,0,0.4,0,0.6,0c0.1,0,0.2,0,0.3,0c0.1,0,0.2,0,0.3,0c0.3,0.1,0.7,0.1,1,0.1
	c0.2,0,0.4,0,0.6,0c0.1,0,0.1,0,0.2,0c0.1,0,0.2,0.1,0.3,0s0.1,0,0.1,0s0.2,0,0.3,0.1c0.1,0.1,0.1,0,0.1,0c0.2,0,0.3,0,0.5,0
	c0.2,0.1,0.3,0.1,0.5,0.1c0.1,0,0.3,0.1,0.4,0.1c0.2,0,0.5,0.2,0.7,0.1c0.1,0,0.2,0.1,0.3,0.1c0.2,0,0.3,0,0.5,0
	c0.3,0.1,0.6,0.2,0.8,0.3c0.1-0.1,0.2-0.1,0.3,0c0,0,0,0,0,0c0,0,0.1,0.1,0.1,0.1c0.2,0,0.3,0.1,0.4,0.2c0.1,0,0.1,0,0.2,0
	c0.1,0,0.1,0,0.2,0c0.1,0,0.1,0.2,0.3,0.2s0.2,0.1,0.4,0.2c0,0,0.1,0,0.1,0c0.2,0,0.3,0.2,0.5,0.3c0.2,0.1,0.1,0.1,0.1,0.1
	c0,0,0,0.1,0,0.1c0.2,0,0.2,0.1,0.2,0.3c0.1,0.1,0.1,0.1,0.1,0.1c0.1,0.1,0.1,0.2,0.1,0.3c0,0.1,0.1,0.2,0.2,0.3
	c0.1,0.1,0.1,0.2,0.2,0.2c0.1,0.1,0.2,0.3,0.3,0.4c0.1,0.1,0.1,0,0.2,0.1c0,0.1,0,0.1,0,0.2c0,0.2,0.1,0.4,0.2,0.6s0.1,0.2,0.2,0.3
	c0,0.1,0.1,0.1,0.1,0.1c0.1,0.1,0.2,0.1,0.2,0.3c0,0.1,0,0.2,0.1,0.2c0.1,0.1,0.2,0.2,0.2,0.3c0,0,0,0.1,0,0.1s0.1,0.3,0.2,0.5
	c0.1,0.2,0.2,0.3,0.2,0.5c0,0,0,0.1,0,0.1c-0.1,0.2,0.1,0.4,0.2,0.5l0.2,0.2l0.1,0.1l0.2,0.3c0,0,0,0,0,0.1c0,0.3,0,0.5,0.2,0.8
	c0,0.1,0.1,0.2,0,0.2s0,0.2,0,0.2c0,0.1,0,0.2,0.1,0.3c0,0,0,0,0.1,0l-0.1,0.1l0.2,0.1c-0.1,0.2,0,0.5,0,0.7s0,0.4,0,0.6
	c0,0.2,0,0.4,0.1,0.6c0,0.1,0,0.2,0,0.2c0,0.3,0,0.7,0,1c0,0.1,0,0.3,0,0.4v0.1c0,0.1,0,0.3,0.1,0.4s0.1,0,0.1,0c0,0,0,0.1,0.1,0.1
	c0.1,0,0,0,0,0s0,0.2,0.1,0.2c0.1,0,0.1,0.1,0.1,0.1s0,0.1,0.1,0c0.1-0.1,0.1,0.1,0,0.1s0,0.2,0.1,0.3c0.1,0.1,0,0,0,0.1
	s0.1,0.3,0.2,0.4s0,0,0.1,0c0.2,0.1,0.3,0.3,0.3,0.5c0,0,0,0.1,0.1,0.1c0.1,0.1,0.2,0.2,0.1,0.3c0,0.1,0,0.2,0.1,0.3
	c0.1,0.1,0.1,0.2,0,0.4c0,0.1,0,0.1,0,0.2h0.1c0,0.1,0.1,0.2,0.1,0.3c0,0.1,0,0.2,0.1,0.3c0,0,0,0.1,0,0.1c0,0.2-0.1,0.3-0.1,0.5
	c0,0.2,0,0.2,0,0.3l-0.1,0.5c0,0.1,0,0.1,0,0.2c0,0.1,0,0.2,0,0.4c0,0.2,0,0.4-0.1,0.6h-0.1c-0.1,0.1-0.1,0.3-0.1,0.4
	c0,0.1,0,0.2,0,0.3c-0.1,0.3-0.1,0.5-0.1,0.8c0,0.2,0,0.3-0.1,0.5c-0.1,0.1-0.2,0.3-0.2,0.4c0,0.1,0,0.3,0,0.4l0,0
	c-0.1,0-0.1,0.1-0.1,0.2c0,0.1-0.1,0.1-0.1,0.2s-0.1,0.1-0.1,0.1c0,0.2,0,0.4-0.1,0.5c-0.1,0.2-0.1,0.4-0.1,0.6c0,0.1,0,0.2-0.1,0.2
	c-0.1,0.1-0.1,0.2-0.1,0.3v0.3l-0.2,0.1V53c0,0,0,0.1,0,0.1c-0.1,0.1-0.1,0.3-0.1,0.4c0,0.1,0,0.1-0.1,0.2c-0.1,0.1-0.1,0.3-0.1,0.4
	c0,0.2,0,0.5,0,0.7c0,0,0,0.1,0,0.1c0,0.3,0,0.5,0,0.8c0,0.2,0,0.4,0,0.7s0.1,0.6,0.1,0.9c0,0.1,0.1,0.3,0,0.4s0,0.1,0,0.1
	c0,0.1,0.1,0.2,0.1,0.3c0,0.1,0,0.2,0,0.3c0,0.3,0,0.6,0,0.9c0,0.1,0,0.2-0.1,0.3s0,0.1,0,0.1s0.1,0.2,0.1,0.2c0,0.2,0,0.5,0,0.7
	c0,0.1,0,0.2,0,0.3c0,0.1,0,0.1,0,0.2s0.1,0.1,0,0.2s0.1,0.1,0,0.2c-0.1,0.1,0,0.1,0,0.1s-0.1,0.2-0.1,0.2v0.4c0,0.1,0,0.2-0.1,0.3
	c0,0,0,0.1,0,0.1c0,0.2,0,0.3,0,0.5c0,0,0,0.1,0,0.1c0.1,0.2,0,0.3,0,0.5c0,0.2-0.2,0.1-0.2,0.2c0,0.1,0,0.2,0,0.3
	c0,0.1,0,0.2,0,0.3c0,0.1,0,0.2,0,0.3c-0.1,0.1,0,0.4-0.2,0.5c0,0,0,0.1,0,0.1c0,0.1,0,0.2-0.1,0.3c-0.1,0.1-0.2,0.2-0.2,0.4
	c0,0.2,0,0.4-0.1,0.5c-0.1,0.2-0.1,0.4-0.2,0.5c0.1,0.2-0.1,0.2-0.1,0.3c-0.1,0.1-0.1,0.2-0.1,0.4c0,0.1,0,0.2-0.1,0.2
	c-0.1-0.1-0.2,0-0.3,0c-0.1,0.1,0,0.2,0,0.3c-0.1,0.1-0.1,0.3-0.2,0.4l0,0c0,0.2-0.2,0.3-0.3,0.4v0.2c-0.1,0.1-0.2,0.2-0.2,0.4
	l-0.2,0.1c0,0-0.1,0.1-0.1,0.1c0,0.2-0.1,0.3-0.2,0.4c0,0,0,0.1,0,0.1s0,0.1-0.1,0.1c-0.1,0-0.1,0.2-0.3,0.3c-0.2,0-0.1,0.1-0.1,0.2
	s-0.1,0.2-0.2,0.2c-0.3,0.1-0.3,0.4-0.5,0.6s-0.1,0.2-0.2,0.2s0,0,0,0c-0.1,0.3-0.4,0.4-0.4,0.7l0,0c-0.1,0.1-0.2,0.2-0.2,0.4
	c0,0.1,0,0.3,0,0.4c0,0.2-0.1,0.3-0.2,0.4c-0.1,0.2-0.1,0.4-0.2,0.6c0,0,0,0.1,0,0.1c-0.2,0.2-0.4,0.4-0.4,0.6
	c-0.1,0.2-0.2,0.4-0.3,0.5c0,0.1-0.1,0.1-0.1,0.2c0,0.1-0.1,0.2-0.2,0.2c0,0.1,0,0.1,0,0.2c0,0.2-0.1,0.3-0.2,0.4c0,0,0,0.1,0,0.1
	c-0.1,0.3-0.3,0.5-0.6,0.8s-0.2,0.2-0.3,0.4c0,0.1-0.1,0.1-0.1,0.1c-0.2,0.1-0.3,0.3-0.4,0.5c-0.1,0.1-0.1,0.2-0.2,0.3
	c-0.1,0.1-0.2,0.2-0.3,0.4c-0.1,0.1-0.1,0.2-0.2,0.2c-0.1,0.1,0,0.2-0.2,0.2c-0.2,0,0,0,0,0.1s-0.1,0.2-0.1,0.2
	c-0.1,0.2-0.3,0.3-0.5,0.3c-0.2,0.1-0.3,0-0.4,0l0.1-0.1c0-0.1-0.1-0.1,0-0.2c0.1-0.1,0,0,0,0s0-0.3,0-0.5c-0.1-0.1-0.2-0.1-0.2,0
	c-0.3,0.1-0.5,0.3-0.7,0.6c-0.1,0.1-0.2,0.2-0.3,0.2c0,0-0.1,0-0.1,0c-0.2,0.2-0.5,0.3-0.7,0.3c-0.1,0-0.2,0.1-0.3,0.1
	c-0.4,0.2-0.8,0.2-1.1,0.3c-0.1,0-0.3,0-0.4,0c-0.2,0-0.4,0-0.6,0c-0.1,0-0.1,0-0.2,0c-0.2-0.1-0.4-0.1-0.7-0.2
	c-0.2-0.1-0.1-0.2-0.1-0.3h-0.2l0.2-0.2c-0.1-0.1-0.1-0.3,0-0.4c-0.1,0-0.1,0-0.2,0s-0.3,0-0.4,0.1c-0.2,0-0.3,0.2-0.6,0.1
	s-0.2,0.1-0.3,0.1c-0.1,0.1-0.3,0.1-0.4,0c-0.2-0.1-0.4-0.2-0.6-0.3c-0.1,0-0.1-0.1-0.2-0.2s0-0.2,0-0.3c-0.1,0-0.3-0.1-0.4-0.2
	c-0.1-0.1-0.2-0.3-0.2-0.4c0,0,0-0.1,0-0.1s-0.1-0.4-0.2-0.6c-0.1-0.2-0.1-0.2-0.2-0.3c-0.1-0.1-0.1-0.3-0.1-0.4
	c-0.1,0-0.3,0.1-0.4,0.2c-0.3,0.2-0.8,0.1-1-0.2c0,0,0,0,0,0c0,0-0.1-0.1-0.1-0.1c0.1-0.2,0.1-0.3,0.3-0.4c0.2-0.2,0.3-0.4,0.4-0.6
	c-0.1,0-0.2-0.1-0.2-0.3c0-0.1,0-0.2,0-0.2c0-0.1,0-0.2,0-0.3c-0.1-0.2-0.2-0.4-0.3-0.6c0-0.1,0-0.1,0-0.2c0-0.2-0.1-0.4-0.3-0.5
	c0.1-0.2,0.2-0.4,0.2-0.6l0,0c0.2-0.1,0.1-0.4,0.4-0.6c-0.1-0.1,0.1-0.1,0.1-0.2c0-0.1,0.1-0.2,0.1-0.3c0-0.1,0-0.2,0.1-0.3
	c0.1-0.3,0.2-0.7,0.6-0.8l-0.3-0.1c0.1-0.1,0.2-0.2,0.3-0.2s0.2-0.1,0.3-0.1h-0.1l0,0h0.2l0.1-0.3h0.2c0.1-0.1,0.1-0.2,0.2-0.2
	c0-0.1,0.1,0,0.2-0.1c0.1-0.1,0.3-0.2,0.4-0.2c0,0,0,0,0.1-0.1c0.1-0.1,0.2-0.2,0.2-0.2c0.1,0,0.1-0.1,0.2-0.2
	c0.1-0.1,0.2-0.3,0.4-0.3c0.2,0,0.2-0.2,0.4-0.3s0.1,0,0.1-0.1c0-0.1,0.1-0.1,0.1-0.2c0.1,0,0.1-0.1,0.2-0.2
	c0.1-0.2,0.2-0.4,0.4-0.5c0.1,0,0.1-0.1,0.2-0.2c-0.3-0.1-0.4-0.4-0.6-0.7c-0.1-0.1,0-0.2-0.1-0.3c-0.1-0.3-0.2-0.5-0.3-0.8
	c-0.1-0.3-0.2-0.5-0.3-0.8s0-0.3-0.1-0.4c-0.1-0.2-0.2-0.4-0.2-0.7c0-0.2,0-0.4-0.2-0.5c-0.2-0.2,0-0.1,0-0.1c0,0,0-0.1,0-0.1
	c0-0.3-0.1-0.3,0-0.4s-0.2-0.2,0-0.3c0,0,0-0.1,0-0.1c-0.1-0.1,0-0.2-0.1-0.3c-0.1-0.1,0-0.1,0-0.1c0,0,0,0,0-0.1
	c-0.1-0.1,0-0.2,0-0.2s0.1-0.3,0.1-0.5c0-0.4,0.1-0.7,0.1-1.1c0-0.2,0.1-0.4,0.2-0.5c0.1-0.1,0.2-0.3,0.2-0.5c0-0.1,0-0.2,0.1-0.3
	c0-0.1-0.1,0,0-0.1c0.1-0.1,0.1-0.2,0.1-0.3c0.1-0.1,0.1-0.2,0-0.3c0-0.1,0-0.2,0.1-0.2s0.3-0.2,0.5-0.3l-0.1-0.2l0.1-0.1
	c0.1,0,0.1,0,0.1-0.1s0.2-0.3,0.3-0.4c0.1-0.2,0.2-0.2,0.4-0.3l0-0.2l0.1-0.1l0,0c0-0.1,0-0.2,0-0.3c0.1-0.1,0.1-0.2,0.1-0.3
	c0,0,0-0.1,0.1-0.1c0.1,0,0.1-0.1,0.1-0.2c0-0.1,0.1-0.1,0.1-0.2c0,0,0.1-0.1,0.1-0.1c0.1-0.1,0.1-0.2-0.1-0.3
	c-0.2-0.1-0.3-0.2-0.5-0.3l-0.3-0.1l-0.3-0.2c-0.1,0-0.1-0.1-0.2-0.1c0,0-0.1,0-0.1-0.1c-0.1-0.2-0.3-0.3-0.3-0.6
	c0-0.2-0.2-0.3-0.3-0.4h-0.3c-0.1,0.1-0.1,0.2-0.2,0.3c-0.1,0.1-0.2,0.2-0.2,0.3s0.1,0.1,0,0.2c-0.1,0-0.1,0.1-0.1,0.2
	s-0.1,0.1-0.1,0.2c0,0.1,0,0-0.1,0c-0.1,0-0.2,0.1-0.2,0.2c0,0.1-0.1,0.1-0.2,0.2v0.2h-0.2l0.1,0.1c-0.3,0.1-0.3,0.3-0.4,0.5
	c-0.1,0.2-0.2,0.4-0.3,0.5c0,0,0,0.1,0,0.1c0,0,0,0.1,0,0.1c-0.1,0.1-0.2,0.2-0.2,0.3c0,0.1,0,0.1-0.1,0.2c-0.1,0.1-0.1,0.2-0.1,0.4
	v0.1c0,0-0.1,0.2-0.2,0.2c-0.1,0.1-0.1,0.2,0,0.3c0,0,0,0.1,0,0.1c-0.1,0.2-0.1,0.3-0.2,0.5c0,0.1,0,0.1,0.1,0.2
	c-0.2,0.1-0.1,0.3-0.1,0.4s0.3,0.2,0.3,0.5c0,0.1,0,0.2,0,0.2c0,0,0,0.1,0,0.1c0,0.1,0,0.3,0,0.4c0,0.2,0,0.4,0.1,0.5
	c0,0.1,0,0.3,0,0.4l0.2,0.2c0,0-0.1,0.1-0.1,0.1s0,0.1,0.1,0.2c-0.1,0.1-0.2,0.2-0.1,0.3c0,0.1,0,0.3,0.1,0.3l-0.1,0.1
	c0,0.1,0,0.3,0.1,0.3c0,0.1,0,0.2,0,0.3c0,0.1,0,0.2,0.1,0.2v0.2c0,0,0,0.1,0,0.2s0,0.3,0,0.5s0,0,0,0l-0.2,0.6c0,0,0,0.1,0,0.1
	c0,0.1,0,0.1,0,0.2c-0.1,0.1-0.2,0.2-0.3,0.4c-0.1,0.1-0.1,0.1-0.1,0.2s0,0.1,0,0.1c-0.1,0.1-0.2,0.1-0.3,0.2v0.1h-0.1
	c-0.1,0-0.3,0.1-0.4,0.2c0,0-0.1,0-0.2,0.1s-0.1,0.2-0.1,0.2c-0.1,0-0.2,0-0.2,0.1c-0.1,0.1-0.1,0.1-0.1,0.2l-0.1-0.1
	c-0.1,0.1-0.1,0.2,0,0.2c0,0,0,0,0,0c0.1,0.1,0.1,0.3,0.2,0.4c0,0,0,0.1,0,0.1c-0.1,0.1-0.1,0.2,0,0.2c0,0.1,0,0.2,0,0.3
	c0,0.1-0.1,0.2,0,0.3 M240.5,68.6c-0.1,0.1-0.1,0.2,0,0.2c0,0.1,0,0.2,0,0.3c0,0.1,0,0.2,0,0.3c0,0,0,0.1,0,0.1s-0.1,0.2,0,0.3
	c0,0-0.1,0.1,0,0.2s-0.1,0.4-0.2,0.6c0,0.1-0.1,0.2-0.1,0.2c-0.1,0.2-0.2,0.3-0.2,0.5c0,0.1,0,0.2-0.1,0.2c0,0,0,0.1,0,0.2
	s-0.2,0.1-0.3,0.3c-0.1,0.1,0,0.1,0,0.2c-0.1,0.2-0.1,0.5-0.2,0.7c0,0,0,0.1,0,0.1c0,0.1,0,0.2-0.1,0.3s0,0.1,0,0.2
	c0,0.1,0,0.2-0.1,0.3c-0.1,0.1-0.2,0.2-0.2,0.4c0,0,0,0,0,0.1c0,0.3-0.2,0.6-0.2,0.8c0,0,0,0,0,0.1c-0.1,0.1-0.2,0.3-0.3,0.5
	c0,0.1-0.1,0.1,0,0.1c0,0.1,0,0.2-0.1,0.3c0,0,0,0.1,0,0.1c0,0.2,0,0.2-0.3,0.5c0,0.1,0,0.2-0.1,0.2c0,0.1-0.1,0.1-0.1,0.2
	c0,0.1,0,0.1,0,0.2c-0.1,0.1-0.1,0.3-0.2,0.4c-0.1,0.2,0,0.1,0,0.1s0,0,0.1,0.1c0.1,0.1,0.2,0.3,0.2,0.4c0,0,0,0,0.1,0.1h0.2
	c0,0.1,0,0.1,0,0.2s0,0,0,0c0.2,0.1,0.1,0.2,0.1,0.3c0,0.1,0.1,0.2,0.1,0.4c0,0.1,0,0.1,0,0.2h0.2c-0.1,0-0.1,0.1-0.2,0.1
	c-0.1,0.1-0.1,0.1,0,0.2c0.1,0.1,0.1,0.2,0,0.2c-0.1,0.1-0.1,0.2-0.1,0.3c0,0.1,0,0.2-0.1,0.3c-0.1,0.1-0.1,0.3-0.3,0.4
	c-0.1,0-0.1,0.1-0.2,0.2c0,0.1-0.1,0.2-0.3,0.3c-0.1,0.1-0.3,0.1-0.2,0.3c0.1,0.2-0.1,0.2-0.2,0.3l-0.3,0.5l-0.1,0.2
	c0,0,0,0.1,0,0.1c-0.2,0.1-0.2,0.2-0.2,0.4c0,0.1-0.1,0.1-0.1,0.2c0,0.1-0.1,0.1-0.1,0.2c0,0-0.1,0-0.1,0.1
	c-0.2,0.4-0.5,0.8-0.8,1.2c0,0.1-0.1,0.1-0.1,0.2c0,0.2-0.2,0.2-0.3,0.3c0,0.1,0,0.1,0,0.2c0,0.1,0,0.1-0.1,0.2l0,0
	c-0.3,0.2-0.5,0.5-0.8,0.7c-0.1,0.1-0.2,0.2-0.3,0.4c0,0.1-0.1,0.1-0.2,0.2c-0.1,0.1-0.1,0.2,0.1,0.2l0.8,0.2c0.3,0.1,0.7,0.2,1,0.3
	c0.3,0.1,0.6,0.2,0.9,0.1c0.2,0,0.3,0,0.4,0.2c0.1,0.2,0.1,0.1,0.2,0.2c0,0.3,0,0.3-0.2,0.5c0,0-0.1,0-0.1,0c-0.2,0-0.4,0-0.6,0.1
	h-3.1c-0.3,0-0.5,0-0.8-0.1c-0.1-0.1-0.2,0-0.3,0.1c0-0.1-0.2-0.2-0.3-0.2c-0.2,0-0.4,0-0.6,0c-0.1,0-0.3,0-0.4,0h-0.5
	c0,0-0.1,0-0.1-0.1l-0.1,0.1l0.1-0.3c-0.2-0.1-0.4,0-0.6-0.1c0,0,0-0.1,0-0.1s-0.1-0.1,0-0.2c0.1,0,0.2-0.1,0.3-0.2
	c0.1-0.1,0.2-0.2,0.2-0.3c0,0,0-0.1,0-0.1c0.1-0.1,0.1-0.1,0-0.2c0.1-0.1,0-0.1,0-0.2s0-0.2,0-0.2c0-0.2-0.1-0.3-0.2-0.4
	c0,0-0.1-0.1-0.1-0.1c0,0-0.1-0.2-0.1-0.4c0-0.1-0.1-0.2-0.1-0.3c0-0.2,0-0.5-0.1-0.7c0-0.1-0.1-0.2,0-0.3s0-0.4-0.1-0.5
	c-0.1-0.1-0.1-0.3,0-0.5c0-0.1,0-0.1,0-0.2c0-0.4,0-0.9,0-1.3c0-0.1,0-0.3-0.1-0.4c0,0,0-0.1,0-0.1c0-0.2,0-0.4,0-0.6s0.1-0.1,0-0.2
	c0.1-0.1,0-0.3,0.1-0.5c0.1-0.1,0.1-0.3,0-0.5c0-0.1,0-0.3,0.1-0.4c0,0,0.1,0,0.1-0.1c0-0.3,0.2-0.6,0.3-0.8c0,0,0,0,0-0.1
	c0.1-0.1,0.1-0.2,0.2-0.3c0-0.1,0.1-0.2,0.1-0.3c0,0,0-0.1,0-0.1c0-0.1,0-0.1,0-0.2c0-0.1,0-0.1,0-0.2h-0.1l-0.1-0.3
	c0,0,0-0.1-0.1-0.1c-0.1-0.2-0.1-0.2,0-0.3c0,0-0.1-0.1,0-0.1c-0.1,0-0.1-0.1-0.1-0.2c0-0.1,0-0.1,0-0.2v-0.2c0-0.1-0.2-0.2-0.1-0.4
	c-0.2-0.2-0.1-0.6-0.1-0.8l0,0c-0.1-0.4-0.1-0.7-0.1-1.1c0,0,0-0.1,0-0.1s-0.1-0.2-0.1-0.4s0-0.3-0.1-0.4s-0.1-0.1,0-0.1
	s0-0.2-0.1-0.4c0-0.1,0-0.3-0.1-0.4c-0.1-0.2-0.1-0.3-0.2-0.5c-0.1-0.1-0.1-0.3-0.3-0.3c-0.2,0-0.1,0-0.1-0.1l-0.3,0.2
	c-0.1-0.1-0.1-0.3-0.2-0.4c-0.1-0.1-0.2-0.1-0.3-0.1c-0.2,0-0.3,0-0.5-0.1c-0.2,0-0.3-0.1-0.5-0.1c-0.2,0-0.4,0.1-0.4,0.3
	c0,0.1,0,0.1-0.1,0.2c-0.2,0.1-0.3,0.3-0.4,0.5v0.1c-0.2,0.2-0.4,0.3-0.6,0.5c-0.1,0.1-0.2,0.3-0.3,0.4c0,0.1-0.1,0.2-0.2,0.2
	c-0.1,0.1-0.2,0.2-0.3,0.3c-0.1,0.1-0.1,0.3-0.3,0.3c-0.1,0.1-0.2,0.1-0.2,0.2c0,0.1-0.1,0.2-0.2,0.2c0,0,0,0-0.1,0.1
	s-0.1,0.1-0.3,0.2h0.1l-0.3,0.4c0,0-0.1,0.1-0.1,0.1c-0.2,0-0.2,0.1-0.3,0.2c-0.1,0.1-0.2,0.2-0.3,0.3c-0.1,0.1-0.2,0.2-0.3,0.3
	c-0.1,0.1-0.2,0.2-0.4,0.4c-0.2,0.1-0.3,0.4-0.5,0.5c-0.1,0-0.1,0.2-0.2,0.2c-0.1,0.2-0.3,0.5-0.6,0.6c0,0.2-0.1,0.3-0.2,0.5
	c0,0.1,0,0.2,0,0.3c0,0.1-0.1,0.2-0.1,0.3c0,0-0.1,0-0.1,0c-0.2,0-0.4,0.2-0.5,0.2c-0.2,0.1-0.4,0.2-0.4,0.4
	c-0.1,0.2-0.3,0.3-0.5,0.3c-0.1,0.1-0.1,0.3,0,0.5c0,0.2,0.1,0.3,0.1,0.4l-0.1,0.2c0.1,0.1,0.1,0.2,0,0.3c0,0,0,0.1,0,0.2
	s0,0.1,0,0.1s-0.1,0.2-0.1,0.3s-0.1,0.4-0.1,0.6c0,0.2,0,0.4-0.1,0.7c0,0.2-0.1,0.4-0.2,0.5c0,0,0,0.1,0,0.1s0,0.3,0,0.5l0,0
	c-0.1,0.1-0.2,0.3-0.2,0.5c0,0.1,0,0.2-0.1,0.2c0,0.1,0,0.1,0,0.2c0,0.2,0,0.3-0.1,0.5c-0.1,0.1-0.1,0.3-0.1,0.4
	c0,0.1-0.1,0.1-0.1,0.1c0.1,0-0.1,0.1,0,0.1l0,0c-0.1,0.1-0.1,0.3-0.2,0.4c0,0.1,0,0.2-0.1,0.3c-0.1,0.1,0,0.1,0,0.1
	c0,0.2-0.1,0.4-0.2,0.5c-0.2,0.1-0.3,0.4-0.3,0.6l0.1,0.2l0.8,0.2l-0.1,0.1c0,0,0.1,0,0.1,0c0.2,0,0.3,0.1,0.3,0.2
	c0,0.1,0.1,0.1,0.2,0.2c0.2,0.1,0.4,0.2,0.6,0.3c0.1,0.1,0.1,0.1,0.1,0.2v0.4l0,0c-0.2,0-0.3,0-0.4,0.2c0,0-0.1,0-0.1,0.1
	c-0.4,0.1-0.7,0.2-1.1,0.2h-0.4c0,0-0.1,0-0.2,0c-0.2,0.1-0.4,0.1-0.6,0.1h-1c-0.4,0-0.7,0-1.1-0.1c-0.2,0-0.4,0-0.6-0.1
	c-0.1,0-0.2,0-0.3-0.1c-0.2,0-0.2-0.2-0.1-0.3l-0.3-0.2h0.3c0.1-0.1,0-0.2,0.1-0.2l-0.2-0.1c0.1-0.2,0.3-0.3,0.5-0.3
	c0.2,0,0.3-0.1,0.4-0.2c0,0-0.1-0.1-0.1-0.1c-0.1-0.1-0.2-0.2-0.2-0.3c-0.1-0.1-0.2-0.2-0.3-0.3c-0.1-0.1-0.2-0.2-0.3-0.3
	c-0.1-0.1-0.2-0.2-0.3-0.2c-0.1-0.1-0.1-0.2-0.2-0.3c-0.1-0.1-0.1-0.3-0.1-0.4c-0.2-0.2-0.4-0.4-0.5-0.7c-0.1-0.1-0.1-0.3-0.1-0.4
	c0-0.1-0.1-0.2-0.2-0.3c-0.1-0.1-0.2-0.2-0.2-0.4c0-0.2-0.1-0.4-0.2-0.6s-0.1,0-0.1-0.2s-0.2,0-0.1-0.2c-0.2-0.2-0.1-0.4-0.2-0.6
	c-0.1-0.2-0.2-0.5-0.2-0.7c0-0.1,0-0.2,0-0.3c0,0-0.1-0.1-0.1-0.1s-0.1-0.1-0.1-0.2c-0.1-0.1-0.2-0.2-0.2-0.4c0-0.1,0-0.2-0.1-0.3
	c-0.1-0.1-0.1-0.2-0.1-0.2c0-0.1-0.1-0.2-0.2-0.3c0,0,0-0.1,0-0.1c0-0.1-0.1-0.1-0.1-0.1c0.1-0.1,0-0.3,0.1-0.5
	c-0.1-0.1-0.1-0.3-0.1-0.5v-0.2c0-0.1-0.1-0.1-0.1-0.1c0.1-0.1,0-0.3,0-0.4c0,0,0-0.1,0-0.1c0.2-0.2,0-0.4-0.1-0.6
	c0-0.2-0.2-0.3-0.3-0.4c-0.1-0.1-0.1-0.3-0.2-0.4c0,0,0-0.1,0-0.1c-0.2-0.1-0.2-0.4-0.3-0.5s0-0.2-0.2-0.2c-0.1,0,0,0,0-0.1
	s-0.1-0.2-0.1-0.3c0-0.1-0.1-0.2-0.1-0.3c0-0.1,0-0.1-0.1-0.1c0,0-0.2-0.4-0.3-0.5c-0.1-0.2-0.2-0.5-0.3-0.7c0,0,0-0.1,0-0.1
	c0-0.1,0-0.2-0.1-0.2c-0.1,0-0.1-0.3-0.3-0.4c-0.1-0.1,0-0.1,0-0.1c0-0.1-0.1-0.1-0.1-0.2c0-0.1-0.1-0.1-0.2-0.2l0,0l-0.3-0.4
	c0-0.1-0.1-0.2-0.2-0.3c-0.1-0.2-0.2-0.4-0.3-0.7c0,0,0-0.1-0.1-0.1c0,0-0.1-0.1-0.1-0.1s0-0.2,0-0.2s-0.1-0.1-0.1-0.2
	c0-0.1-0.1-0.2-0.1-0.2c0-0.1,0-0.2,0-0.3c0-0.1,0-0.2-0.1-0.4c0-0.1-0.1-0.1-0.1-0.2l0.1-0.1c-0.1-0.1-0.1-0.3-0.1-0.4
	c0-0.2,0-0.4,0-0.6c0-0.1,0-0.2,0.1-0.3s0.1-0.1,0.1-0.1c0-0.2,0.1-0.3,0.2-0.5c0,0,0.1-0.1,0.1-0.1c0.1,0,0.2-0.2,0.2-0.3
	c0-0.2,0.1-0.5-0.1-0.7s0-0.2-0.1-0.3l0,0c0.1-0.1,0.1-0.3,0-0.4l0,0c0.1-0.1,0.1-0.2,0.1-0.3c0-0.1,0,0-0.1-0.1
	c-0.1-0.1,0-0.1,0-0.1c0-0.1-0.1-0.3-0.1-0.4c0-0.2-0.1-0.3-0.1-0.4s0,0,0-0.1v-0.1c-0.1-0.1,0-0.2-0.1-0.3
	c-0.1-0.1-0.1-0.3-0.1-0.4c0,0,0-0.1,0-0.1c-0.1-0.1,0-0.1,0.1-0.2c-0.1-0.1-0.1-0.3-0.1-0.4c0-0.1,0-0.2,0-0.3c0-0.1,0-0.1,0-0.2
	c0-0.2,0-0.3,0-0.5c0,0,0,0-0.1,0s0.2-0.3,0.1-0.4s0-0.1,0-0.2s0.1-0.2,0-0.4c0-0.1,0-0.2,0-0.3c0-0.1,0-0.3-0.1-0.3
	c0,0-0.1,0-0.1-0.1c0.1-0.2-0.2-0.4-0.2-0.7s-0.1-0.2-0.1-0.3c0-0.1,0-0.2-0.1-0.3l0,0c-0.2-0.1-0.2-0.3-0.2-0.5
	c0-0.2-0.1-0.5-0.3-0.7c0,0,0-0.1-0.1-0.1c0-0.1-0.1-0.2-0.1-0.3c-0.1-0.1-0.1-0.2-0.2-0.3c-0.1-0.1-0.1-0.3-0.2-0.4l-0.1-0.2
	c-0.1-0.1,0-0.2-0.1-0.3c-0.1,0-0.2-0.1-0.2-0.2c0,0-0.1,0-0.1,0s0,0,0,0s-0.1,0.1-0.1,0.1s0.1,0.2-0.1,0.3l-0.2-0.3
	c0-0.2,0.2-0.3,0.4-0.3l-0.1-0.2c0-0.1-0.1-0.1-0.1-0.2c0,0-0.1-0.1-0.1-0.1l0,0l0,0c-0.1,0-0.2-0.1-0.2-0.3c0-0.1-0.1-0.2-0.1-0.3
	c0,0,0-0.1-0.1-0.1c-0.1-0.1-0.2-0.2-0.3-0.3c0,0.1,0,0.1-0.1,0.2c0,0.1,0,0.1,0,0.2c0,0.1,0.1,0.1,0.1,0.2l-0.1,0.1
	c-0.1-0.2-0.2-0.4-0.2-0.6h0.1c0.1,0,0.1-0.2,0.1-0.2c0,0,0,0,0,0c0-0.1-0.1-0.2-0.1-0.3c-0.1-0.2-0.2-0.5-0.1-0.7
	c0-0.1,0-0.1,0-0.2c-0.1-0.1-0.2-0.3-0.2-0.5c0,0,0-0.1-0.1-0.2c-0.1-0.1-0.3-0.3-0.4-0.3c-0.2,0-0.3-0.1-0.5-0.2
	c-0.1-0.1-0.2-0.1-0.3-0.2c-0.1,0-0.2-0.1-0.1-0.2c-0.1,0-0.2-0.1-0.3-0.1c-0.1-0.1-0.2-0.1-0.3-0.2l-0.1-0.1
	c-0.1-0.1-0.3-0.2-0.4-0.3c-0.1-0.1-0.2-0.1-0.3-0.2l-0.2-0.2c-0.1,0.1-0.1,0.3-0.2,0.5c0,0.2-0.1,0.3-0.2,0.4c0,0,0,0.1-0.1,0.1
	c-0.1,0-0.1,0.2-0.3,0.2c-0.2,0-0.2,0.1-0.3,0.1s0,0,0,0l0.1,0.2h0.1c0,0,0,0,0,0.1s0.1,0.3,0.3,0.4s0,0.1,0,0.1l-0.4-0.2
	c0-0.1,0-0.2-0.1-0.3c-0.1-0.1,0-0.1,0-0.2s0-0.2-0.2-0.2c0,0.1,0,0.1,0,0.2c0,0.1,0.1,0.3,0,0.4c0,0.1,0,0.2,0.1,0.3c0,0,0,0,0,0.1
	c-0.1,0.2,0,0.3,0.1,0.4c0,0,0.1,0.1,0.1,0.1c0.1,0.2,0.1,0.3,0.3,0.4c0,0.1,0.2,0.2,0.2,0.3c0.1,0.1,0.1,0.1,0.2,0.1s0.1,0,0.1,0.1
	l-0.1,0.1l0,0c0.2,0.1,0.3,0.3,0.4,0.5c0,0.1,0.1,0.2,0.1,0.2s0.2,0.1,0.2,0.2c0,0.1,0,0.2,0.1,0.3c0,0.1,0.1,0.2,0.1,0.3
	c0.1,0.1,0.1,0.2,0.2,0.2c0.1,0.2,0.2,0.2,0.2,0.4c0.1,0,0.1,0.2,0.3,0.2c0.1,0,0.1,0.2,0.1,0.3c0,0.1,0,0.2,0.1,0.2
	c0.1,0.1,0.2,0.2,0.3,0.3c0.1,0.1,0.1,0.2,0.1,0.2c0,0.1,0,0.2,0,0.3s0,0.1,0.2,0.1c0.1,0.1,0,0.2-0.1,0.3c0,0,0,0,0,0
	c0.1,0.1,0.2,0.3,0.3,0.3c0,0,0.1,0.1,0.1,0.1c0,0.2,0,0.3,0,0.4s0,0.2,0.1,0.3s-0.1,0.1-0.1,0.2c0,0.1,0,0.1,0,0.2
	c0,0,0.1,0.1,0.1,0.1c0,0.2,0,0.4,0,0.7c0,0.1,0,0.1-0.1,0.2c-0.1,0.2-0.2,0.3-0.1,0.5c0,0,0,0.1,0,0.1s-0.1,0.2,0,0.3l-0.1,0.3
	c0,0,0,0.1-0.1,0.1c0,0.1,0,0.2-0.2,0.3s-0.1,0.1-0.1,0.1s-0.1,0.2-0.1,0.3l0,0c-0.2,0.1-0.1,0.3-0.1,0.4c0,0.1,0,0.1-0.1,0.2
	c0,0,0,0.1,0,0.2c-0.2,0.2-0.3,0.4-0.4,0.6c0,0.1-0.1,0.2-0.1,0.2c0,0,0,0.1-0.1,0.1c0,0-0.1,0.1-0.1,0.2c0,0,0,0.1-0.1,0.1
	c-0.2,0.2-0.3,0.4-0.4,0.7l0,0c-0.1,0.1-0.2,0.1-0.2,0.2c0,0.1,0,0.2-0.1,0.2c-0.2,0,0,0.1,0,0.1s0,0.3,0.2,0.4
	c0.2,0.1,0.2,0.2,0.3,0.2l0.1,0.1c0.1,0.1,0.1,0.2,0.1,0.3c0.1,0.2,0.1,0.4,0.2,0.6h0.1c0.2,0.1,0.4,0.2,0.5,0.4
	c0.2,0.3,0.3,0.6,0.6,0.8c0.1,0,0.2,0.1,0.3,0.2c0.1,0.2,0.3,0.3,0.5,0.5c0,0,0.1,0.1,0.1,0.1c0.1,0.1,0.2,0.3,0.4,0.3
	c0.1,0.1,0.3,0.2,0.4,0.3v0.2c0.1,0,0.3,0.1,0.3,0.2c0.1,0.2,0.2,0.4,0.3,0.6s0.2,0.4,0.4,0.6l0,0c0,0.2,0.2,0.3,0.3,0.4
	c0.1,0.1,0.1,0.2,0.2,0.2s0,0.1,0,0.1s0.1,0.1,0.1,0.1c0,0,0,0.2,0.1,0.2c0.1,0.1,0,0.1,0,0.2s-0.1,0.2,0,0.2c0,0.2,0,0.3-0.1,0.5
	c-0.1,0.2-0.1,0.4,0,0.5c0.1,0.1,0.1,0.3,0,0.4l-0.1,0.1c0.1,0.1,0.2,0.2,0.3,0.3c0.1,0.1,0.2,0.1,0.2,0.2c0.1,0.1,0.3,0.2,0.3,0.4
	c0,0-0.1,0.1-0.1,0.1c0,0.1,0,0.2-0.1,0.2c-0.1,0.1-0.2,0.1-0.4,0.1h-0.2c-0.1,0-0.2,0-0.2,0c0,0-0.1,0-0.1-0.1l-0.4,0
	c0,0-0.1,0.1-0.1,0.2c0,0.1,0,0.2,0,0.3V77c0,0-0.1,0.2-0.2,0.3c0,0.1,0,0.2,0,0.2c0,0.1,0,0.2-0.1,0.2c0.2,0.3,0.1,0.8-0.3,0.9
	c0,0-0.1,0-0.1,0.1c0,0,0,0,0,0.1s0.1,0.1,0.1,0.2c0,0.1,0,0.1-0.1,0.2c-0.1,0.1-0.3,0.2-0.4,0.3c-0.1,0.1-0.3,0.2-0.5,0.3h-0.1
	c-0.1-0.1-0.2-0.1-0.3-0.1c-0.2,0-0.4,0-0.5-0.1l0,0c-0.2,0.1-0.5-0.1-0.7,0c0,0.1,0,0.1,0,0.1s0.1,0.1,0.1,0.2h-0.2l0,0l0.3,0.1
	c0,0,0,0.1-0.1,0.1c0,0-0.1,0-0.1,0.1l0.1,0.2l-0.6,0.3c-0.1,0-0.1,0.1-0.2,0.1c-0.3,0-0.7,0-1,0c-0.3,0-0.5,0-0.8,0
	c-0.1,0-0.1,0-0.2,0c-0.1,0-0.1,0-0.2,0c-0.1-0.1-0.2,0-0.3-0.1c-0.1-0.1-0.2-0.1-0.2-0.1h-0.2c-0.2,0-0.4-0.1-0.5-0.2
	c-0.1-0.1-0.2,0-0.3-0.1s-0.2-0.1-0.2-0.2c0-0.1-0.3-0.2-0.4-0.4l0,0c-0.1,0-0.3-0.1-0.4-0.2c0,0-0.1,0-0.1,0c0,0.1,0,0.3,0.1,0.4
	c0.1,0.1,0.1,0.3,0.1,0.5c0,0.1-0.2,0.2-0.3,0.2l-0.3-0.1l-0.3-0.1c-0.2-0.1-0.2-0.3-0.4-0.4c0,0,0,0,0-0.1
	c-0.1-0.2-0.3-0.4-0.5-0.5c-0.2-0.2-0.4-0.3-0.5-0.6c-0.1-0.1-0.1-0.1-0.2-0.2s-0.1,0-0.1-0.1l-0.2-0.2c-0.2-0.2-0.4-0.2-0.5-0.4
	l-0.4-0.4c-0.2-0.1-0.4-0.3-0.4-0.6h-0.2c-0.1-0.2-0.1-0.3-0.2-0.5c-0.1-0.1-0.2-0.3-0.3-0.4c-0.1-0.1-0.3-0.3-0.3-0.4
	c-0.1-0.1-0.2-0.2-0.3-0.4l0,0c-0.1-0.1-0.2-0.1-0.3-0.2c0-0.1-0.2,0-0.2-0.2c0-0.2-0.1-0.1-0.2-0.2c-0.1-0.1-0.2-0.3-0.3-0.4
	c-0.1-0.2-0.2-0.4-0.2-0.6c0,0,0,0,0-0.1c-0.2-0.1-0.1-0.4-0.4-0.4c-0.1,0-0.1-0.1-0.1-0.2c0-0.2-0.2-0.3-0.3-0.2c0,0,0,0,0,0
	c0-0.1,0-0.2-0.1-0.2c-0.1-0.1-0.2-0.2-0.2-0.3h-0.1c-0.2,0-0.3-0.1-0.2-0.3c0-0.1,0-0.1,0-0.2c0-0.1-0.1-0.2-0.1-0.4h-0.1l-0.3-0.2
	c-0.1-0.1-0.2-0.2-0.3-0.3s-0.3-0.3-0.4-0.5s-0.2-0.4-0.5-0.6c-0.1-0.2-0.3-0.3-0.4-0.5c-0.1-0.1-0.2-0.3-0.3-0.4
	c-0.1-0.1-0.2-0.2-0.2-0.3c0-0.2-0.1-0.3-0.3-0.4c0,0-0.1-0.1-0.1-0.1s-0.2-0.3-0.2-0.4c-0.1-0.1-0.2-0.1-0.2-0.2
	c0-0.1-0.1-0.2-0.1-0.3c0-0.1-0.1-0.2-0.1-0.2c-0.1-0.1-0.1-0.2-0.2-0.3c0,0,0-0.1-0.1-0.1c-0.2-0.1-0.3-0.3-0.4-0.5
	c0-0.1-0.1-0.2-0.2-0.2s-0.1,0-0.1-0.1l-0.3-0.6l-0.1-0.2c0,0,0-0.1,0-0.1c-0.2-0.1-0.3-0.3-0.3-0.5c0-0.2-0.1-0.3-0.2-0.4
	c-0.1-0.1-0.2-0.2-0.2-0.4c0,0,0-0.1,0-0.1c0-0.2-0.1-0.4-0.2-0.6c0,0-0.1,0-0.1-0.1c0-0.1-0.1-0.2-0.1-0.2c0-0.1,0-0.1-0.1-0.2
	c-0.1,0-0.1-0.2-0.1-0.3c0-0.1,0-0.2-0.1-0.2c0-0.1,0-0.1,0-0.2c0-0.1,0-0.2,0-0.3c-0.2-0.3-0.3-0.6-0.4-0.9c0-0.1-0.1-0.2-0.1-0.3
	c0-0.1,0.1-0.1,0.1-0.2l-0.1-0.1c0-0.1-0.1-0.1-0.1-0.2c0-0.2,0-0.3,0-0.5c0-0.1,0-0.3,0.1-0.3c-0.2-0.2-0.2-0.4,0-0.4
	c0,0,0,0-0.1-0.1c0,0,0-0.1,0-0.1c0-0.1,0-0.1,0-0.2c0-0.1,0-0.2,0.1-0.2c0.1,0,0,0,0-0.1s0.2-0.1,0.2-0.2c0-0.3,0-0.5,0.1-0.8
	c0.1-0.3,0.1-0.7,0.1-1c0-0.1,0-0.3,0-0.4c0-0.2,0.1-0.4,0.3-0.5l-0.2-0.1l0.1-0.1c-0.1-0.2,0-0.4,0.1-0.6l-0.1-0.1
	c0.1-0.1,0.1-0.2,0.1-0.3c0.1-0.1,0.1-0.2,0-0.3c0,0,0,0,0-0.1c0.2,0,0.1-0.2,0.2-0.3c0.1-0.1,0.1-0.2,0.2-0.3s0-0.1,0-0.1
	s0-0.2,0.1-0.3c-0.1-0.1-0.1-0.2-0.1-0.4c0,0,0-0.1,0-0.1c0.1-0.1,0.1-0.2,0-0.2c0,0,0-0.1,0-0.1c0,0,0-0.1,0-0.2
	c-0.1-0.2-0.1-0.3,0-0.5c0,0,0-0.1-0.1-0.2s-0.2-0.2-0.2-0.4s0.1-0.1,0.1-0.2c0-0.1,0-0.2,0-0.3c0-0.2,0-0.4,0-0.6
	c0-0.1,0.1-0.2,0-0.4c-0.1-0.1-0.1-0.2-0.1-0.3l0.1-0.2l0,0c-0.1-0.1-0.1-0.2-0.2-0.4c0-0.2,0-0.5,0-0.7c0,0,0-0.1,0-0.1l-0.1-0.2
	c-0.1-0.1-0.2-0.3-0.1-0.5c0-0.2,0-0.3,0.1-0.5c0,0,0-0.1,0-0.2c-0.1-0.2,0-0.4,0.1-0.6c0-0.1-0.2-0.2-0.2-0.3
	c0.1-0.1,0.1-0.2,0.2-0.3l-0.1-0.1c0-0.1,0.1-0.2,0.1-0.3c0-0.1,0-0.2,0-0.3c0-0.1,0-0.2,0-0.3c0-0.1,0-0.2,0-0.3
	c0-0.1,0.1-0.2,0.1-0.3c0-0.1-0.1-0.1-0.1-0.2c0-0.1,0.1-0.2,0.2-0.3c0.1-0.1,0.1-0.1,0.1-0.2c0,0,0,0,0-0.1
	c0.1-0.1,0.2-0.2,0.2-0.4c0-0.1,0.1-0.2,0.2-0.3c0,0,0.1,0,0.1-0.1c0-0.1,0.1-0.3,0.2-0.4c0,0,0,0,0-0.1s0.1-0.1,0.2-0.2
	c0-0.1,0.1-0.2,0.1-0.2l0.2,0.1c0.1-0.1,0.1-0.2,0.3-0.3s0.1-0.1,0.1-0.1c0,0,0.1-0.2,0.2-0.2l0,0c0-0.2,0.1-0.2,0.2-0.3
	s0.2-0.2,0.3-0.3c0,0,0,0,0.1,0c0.2,0,0.2-0.1,0.2-0.3l0.1,0.1c0.1-0.2,0.1-0.4,0.3-0.4c0-0.3,0-0.6,0.1-0.9c0-0.2,0-0.3,0.1-0.5
	c0-0.2,0.1-0.3,0.1-0.5c0-0.1,0-0.1,0-0.2c0-0.1,0-0.1,0-0.2c0,0,0-0.1,0.1-0.1c0-0.1,0-0.2,0.1-0.3c0,0,0,0,0-0.1
	c0-0.2,0.1-0.3,0.1-0.4s0.1-0.3,0-0.5c-0.1-0.2,0-0.1,0.1-0.1c0.1-0.1,0.3-0.3,0.3-0.4c0-0.1,0-0.2,0-0.3c0.1-0.2,0.1-0.3,0.1-0.5
	c0-0.1,0-0.2,0.1-0.3l0,0c-0.1-0.3,0.1-0.5,0.1-0.7c0-0.1,0.1-0.3,0.1-0.4c0-0.1,0-0.2,0.2-0.3s0,0,0-0.1c0-0.2,0.1-0.4,0.2-0.5
	c0,0,0.1-0.1,0.1-0.1c0-0.1,0.1-0.2,0.2-0.2c0,0,0.1,0,0.1-0.1c0-0.2,0.3-0.3,0.3-0.5c0.1,0,0.2,0,0.2-0.2s0.1-0.1,0.1-0.1
	c0.1-0.2,0.1-0.3,0.4-0.3c0.1,0,0.1-0.1,0.2-0.1c0.1-0.1,0.2-0.2,0.2-0.3h0.2l0.3-0.4l0,0c0.3-0.1,0.5-0.4,0.8-0.5
	c0.2-0.1,0.4-0.3,0.6-0.4c0.1-0.1,0.1-0.1,0.2-0.1c0.1,0,0.2-0.1,0.3-0.2c0.1-0.2,0.4-0.3,0.6-0.3c0.1-0.2,0.2-0.3,0.4-0.3
	c0.1,0,0.2-0.1,0.3-0.1h0.2c0-0.1,0.1-0.3,0.3-0.3l0,0c0.2-0.2,0.4-0.1,0.6-0.2c0.1-0.3,0.4-0.3,0.7-0.4c0.1,0,0.2-0.1,0.2-0.2
	c0.1,0.1,0.2,0.2,0.3,0.1c0.1,0,0.3-0.1,0.4-0.2c0.1,0,0.2-0.1,0.3,0c0.1-0.2,0.3-0.2,0.5-0.1c0,0,0,0,0,0c0,0,0.1,0,0.1,0h0.1
	c0.2,0,0.3,0,0.5-0.2c0,0,0.1,0.1,0.1,0.1c0,0,0.1-0.1,0.1-0.1c0.2,0.1,0.3,0.1,0.5,0c0.2,0,0.4-0.1,0.6-0.1c0.1,0,0.2,0,0.3,0
	s0.2,0,0.2-0.1c0.1-0.1,0.1,0,0.2,0.1c0.1-0.2,0.4-0.3,0.6-0.2c0.1,0,0.1,0,0.2,0c0.1,0,0.2,0,0.3,0.1h0.2c0.1,0,0.1-0.1,0.1-0.1
	c0.1-0.1,0.3-0.1,0.4,0c0,0,0,0,0,0c0.2-0.1,0.4-0.1,0.5,0.1c0,0,0.1,0,0.1,0c0.1-0.1,0.2-0.2,0.3-0.3h0.2h0.1c0.1,0.1,0.2,0,0.2,0
	l0.1,0.2c0.1,0,0.2,0,0.3-0.1c0.1,0.1,0.2-0.1,0.3,0c0.1,0.1,0.2,0,0.3,0l0.3,0.1v0.1l0.1-0.2l0.1,0.2c0.1,0,0.2-0.1,0.3-0.1
	c0.1,0,0.2,0.1,0.3,0.2s0.1,0,0.1,0c0,0,0.2,0,0.2,0c0.2,0.1,0.4,0.2,0.7,0.2c0.1,0,0.1-0.1,0.2-0.1s0.1,0.1,0.2,0.2
	c0,0,0.1,0.1,0.1,0c0,0,0,0,0,0c0,0,0.1,0,0.1,0c0.2,0,0.3,0,0.4-0.1c0.2-0.1,0.3-0.1,0.5-0.2c0.1,0,0.2-0.1,0.4-0.1h0.1
	c0.1,0.1,0.2,0.1,0.3,0c0.3,0,0.6-0.1,0.8-0.2c0.1,0,0.2,0,0.3-0.1v0.1c0.1-0.1,0.3-0.2,0.5-0.2c0,0,0.1,0,0.1-0.1
	c0.1-0.1,0.2-0.1,0.3-0.1c0.2,0,0.3,0,0.4-0.2s0.1,0,0.1,0c0.2,0,0.4,0,0.6-0.1c0,0,0.1,0,0.1,0c0.1,0,0.2,0,0.3-0.1
	c0,0,0.1-0.1,0.2-0.1c0.2,0,0.5,0,0.7-0.1c0.3-0.1,0.6-0.2,0.9-0.2c0.2-0.1,0.4-0.1,0.5-0.1c0.1,0,0.2,0,0.2-0.1
	c0.1,0,0.2-0.1,0.2-0.1c0,0,0.1,0,0.1-0.1c0.1-0.1,0.1-0.1,0.2-0.2c0.1,0,0.1-0.1,0.1-0.1c0-0.1,0-0.2,0.1-0.4
	c0-0.1,0.1-0.2,0.2-0.3c0.2-0.2,0.3-0.4,0.3-0.6c0-0.1,0.1-0.1,0.1-0.2c0.1-0.1,0.2-0.3,0.3-0.5c0.1-0.2,0.1-0.5,0.3-0.7
	c0.1-0.2,0.3-0.4,0.3-0.6c0,0,0,0,0-0.1c0.2-0.1,0.3-0.3,0.3-0.5c0-0.1,0-0.2,0.1-0.3c0-0.2,0.3-0.3,0.2-0.6l0,0
	c0.1-0.2,0.2-0.3,0.3-0.5c0.1-0.1,0.1-0.2,0.2-0.3c0-0.2,0.2-0.4,0.2-0.5c0-0.1,0.1-0.2,0.1-0.2h0.1c0,0,0,0,0-0.1
	c0-0.2,0.1-0.3,0.2-0.4c0.1-0.1,0.1-0.1,0.1-0.2c0-0.2,0.2-0.3,0.3-0.4c0.1-0.2,0.1-0.4,0.2-0.6c0.1-0.2,0.1-0.2,0.1-0.3
	c0-0.1,0.1-0.2,0.1-0.2c0.2-0.2,0.3-0.4,0.4-0.6c0,0,0-0.1,0-0.1c0.1-0.1,0.2-0.2,0.3-0.4c0.1-0.1,0.1-0.3,0.2-0.4c0,0,0-0.1,0-0.1
	c0.1-0.1,0.2-0.3,0.2-0.5c0-0.1,0.1-0.1,0.2-0.2c0.2,0,0.2-0.2,0.4-0.3c0.1-0.1,0.2-0.3,0.3-0.4s0.2-0.2,0.3-0.3
	c0.1-0.1,0.2-0.1,0.2-0.2c0,0,0-0.1,0.1-0.1c0.2-0.1,0.2-0.2,0.3-0.4c0.1-0.3,0.2-0.7,0.3-1l0.1-0.1c0,0,0.1-0.1,0.1-0.1
	c0-0.1,0.1-0.2,0.2-0.2c0.1,0,0.1-0.1,0.2-0.2c0.1-0.1,0.2-0.3,0.3-0.5c0,0,0.1-0.1,0.1-0.1c-0.1-0.1-0.2-0.3-0.2-0.5
	c0-0.2,0-0.3,0-0.5c0-0.2,0-0.4,0.1-0.5c0-0.1,0-0.2,0-0.3s0-0.1,0.1-0.2s0-0.1,0-0.1V7.6c0-0.1,0-0.2,0.1-0.3l0,0
	c0-0.2,0.1-0.4,0.2-0.6c0,0,0-0.1,0.1-0.1l0.1-0.2c0.1-0.1,0.1-0.2,0.2-0.2s0.1-0.1,0.1-0.1c0.1-0.2,0.2-0.3,0.4-0.4
	c0.2-0.2,0.4,0,0.6,0c0,0,0.1,0,0.1,0.1c0,0.1,0.1,0.1,0.1,0.1c0.1,0,0.3,0.1,0.4,0.2c0.1,0.1,0.2,0.1,0.2,0.2
	c0.1,0.1,0.1,0.2,0.2,0.3c0.1,0.1,0.2,0.1,0.2,0.2c0.1,0.4,0.4,0.5,0.6,0.8c0.1,0.2,0.3,0.3,0.4,0.4c0.1,0.2,0.4,0.3,0.6,0.4
	c0.1,0,0.1,0.1,0.1,0.1c0,0,0,0,0.1,0c0.3,0.1,0.6,0.1,0.8,0c0.2,0,0.4,0,0.6,0c0.1,0,0.2,0,0.2,0c0.1,0,0.2,0,0.3,0
	c0.1,0,0.1,0,0.2,0c0.1,0,0.2,0,0.2,0c0.2,0,0.4,0,0.6,0s0.5,0,0.7-0.1c0.2,0,0.3,0,0.5-0.1c0.2-0.1,0.4-0.2,0.5-0.3
	c0.2-0.1,0.4-0.3,0.6-0.5c0.1-0.1,0.2-0.2,0.3-0.4c0.2-0.2,0.4-0.4,0.6-0.6c0.2-0.2,0.1-0.2,0.2-0.3c0.1-0.1,0.2-0.1,0.3-0.2
	c0.2-0.1,0.5,0,0.7,0.1c0,0.1,0.1,0.1,0.1,0.2c0,0.1,0,0.3,0.1,0.4c0.1,0.1,0.1,0.2,0,0.3c-0.1,0.1-0.1,0.2-0.1,0.3l-0.1,0.6
	c0,0.1,0,0.3-0.1,0.4c-0.1,0.1,0,0.4-0.1,0.6c0,0.2,0,0.4,0.1,0.5c0,0,0.1,0.1,0.1,0.1h0.1c0.1,0.2,0.4,0.2,0.5,0.4
	c0,0,0.1,0,0.1,0.1c0.1,0,0.1,0,0.2,0.1c0.2,0.2,0.5,0.4,0.8,0.5L236,11c0.1,0.1,0.2,0.1,0.2,0.2l0,0c0.2,0.1,0.2,0.3,0.4,0.4
	c0,0,0.1,0.1,0.1,0.2c0,0,0,0.1,0.1,0.1c0.1,0,0.1,0.2,0.1,0.4s0.1,0.5,0.1,0.8c0,0,0,0,0,0.1c0.1,0.2,0.1,0.5,0.1,0.7
	c0,0.2,0,0.4,0.1,0.6s0.1,0.4,0.1,0.6s0.1,0.5,0.1,0.7c0,0,0,0,0.1,0.1c0.1,0.1,0.1,0.2,0.1,0.3c0,0.1,0,0.2,0,0.3
	c0,0.1,0,0.3-0.1,0.4c-0.1,0.1,0,0,0,0c0,0.2,0,0.4,0,0.6c0,0.2,0,0.4-0.1,0.6c0,0.2-0.1,0.4-0.1,0.5s0,0.1-0.1,0.1
	c0,0.1-0.1,0.2-0.1,0.3c0,0-0.1,0.1-0.1,0.1c0,0-0.1,0.1-0.1,0.1c-0.1,0.3-0.2,0.6-0.2,0.8c0,0.2,0,0.3-0.1,0.5l-0.1,0.5
	c0,0.1,0.1,0.3,0.1,0.4c0,0,0.1,0.1,0.1,0.1c0.1,0.1,0,0.2,0,0.2c0,0,0,0,0,0L240.5,68.6z"/>
<linearGradient id="SVGID_00000169534912953632476330000010437548875142001580_" gradientUnits="userSpaceOnUse" x1="25.54" y1="34.38" x2="25.79" y2="34.38" gradientTransform="matrix(1 0 0 -1 -4.83 81.86)">
	<stop  offset="0" style="stop-color:#DD1FFF"/>
	<stop  offset="1" style="stop-color:#5F8CFB"/>
</linearGradient>
<path style="fill:url(#SVGID_00000169534912953632476330000010437548875142001580_);" d="M20.8,47.3l0.1,0.1l-0.1,0.3h-0.2
	C20.7,47.5,20.7,47.4,20.8,47.3z"/>
<g class="st0">
	<path class="st1" d="M219.8,186.5c1,0.6,1.7,2,1.7,3.7v0.6c0,2.5-1.3,4.1-3.2,4.1h-12.4V178h12.4c1.9,0,3.2,1.6,3.2,4.1v0.6
		C221.5,184.5,220.8,185.8,219.8,186.5z M208.7,185.2h9.3c0.4,0,0.6-0.4,0.6-0.8v-2.9c0-0.5-0.3-0.8-0.6-0.8h-9.3V185.2z
		 M218.7,188.6c0-0.5-0.3-0.8-0.6-0.8h-5.2v0h-4.1v4.6h9.3c0.4,0,0.6-0.4,0.6-0.8V188.6z"/>
</g>
<g class="st0">
	<path class="st1" d="M225.6,181.5v3.7h8.7v2.6h-8.7v3.7c0,0.5,0.3,0.8,0.6,0.8h9.3v2.6h-8.9c-2.3,0-3.8-2-3.8-5v-6.8
		c0-3,1.5-5,3.8-5h8.9v2.6h-9.3C225.9,180.7,225.6,181,225.6,181.5z"/>
</g>
<g class="st0">
	<path class="st1" d="M251.9,180.6h-6.4v14.2h-2.8v-14.2h-6.4V178h15.6V180.6z"/>
</g>
<g class="st0">
	<path class="st1" d="M259.4,190.3h-6l-1.8,4.5h-2.8l6.3-15.3l0.6-1.5h1.6l0.6,1.5l6.3,15.3h-2.8L259.4,190.3z M258.4,187.8l-2-4.8
		l-2,4.8H258.4z"/>
</g>
</svg>
