<?xml version="1.0" encoding="utf-8"?>
<!-- Generator: Adobe Illustrator 26.0.1, SVG Export Plug-In . SVG Version: 6.00 Build 0)  -->
<svg version="1.1" id="Layer_1" xmlns="http://www.w3.org/2000/svg" xmlns:xlink="http://www.w3.org/1999/xlink" x="0px" y="0px"
	 viewBox="0 0 425.2 98.9" style="enable-background:new 0 0 425.2 98.9;" xml:space="preserve">
<style type="text/css">
	.st0{enable-background:new    ;}
	.st1{fill:#FFFFFF;}
	.st2{fill:url(#SVGID_1_);}
	.st3{fill:url(#SVGID_00000137097954930420338780000002302783000869851522_);}
</style>
<path d="M69.2,17.5"/>
<path d="M69.2,17.5"/>
<g class="st0">
	<path class="st1" d="M132.9,30.5h-26.4c-0.8,0-1.5,0.9-1.5,2v7.2c0,1.1,0.7,2,1.5,2h19.3c5.1,0,8.5,4.8,8.5,11.8
		c0,7.1-3.4,11.8-8.5,11.8H98.6v-6.3h27.8c0.8,0,1.5-0.9,1.5-2v-7c0-1.1-0.7-2-1.5-2h-19.3c-5.1,0-8.5-4.8-8.5-11.8V36
		c0-7.1,3.4-11.8,8.5-11.8h25.7V30.5z"/>
	<path class="st1" d="M188.7,24.2l-12,41.2h-6.4l-8.7-30.1l-8.7,30.1h-6.4l-12-41.2h6.4l8.7,30.1l8.7-30.1h6.4l8.7,30.1l8.7-30.1
		H188.7z"/>
	<path class="st1" d="M198.1,24.3h18.2c5.2,0,8.8,4.9,8.8,12.2v16.7c0,7.3-3.5,12.2-8.8,12.2h-18.2c-5.2,0-8.8-4.9-8.8-12.2V36.5
		C189.4,29.2,192.9,24.3,198.1,24.3z M218.6,57V32.6c0-1.1-0.7-2-1.5-2h-19.9c-0.8,0-1.5,0.9-1.5,2V57c0,1.1,0.7,2,1.5,2h19.9
		C218,59.1,218.6,58.2,218.6,57z"/>
	<path class="st1" d="M258.1,59.1v6.3h-29.3V24.2h6.4v34.9H258.1z"/>
	<path class="st1" d="M266,32.6v9.1h19.9V48H266v9c0,1.1,0.7,2,1.5,2h21.4v6.3h-20.5c-5.2,0-8.8-4.9-8.8-12.2V36.5
		c0-7.3,3.5-12.2,8.8-12.2h20.5v6.3h-21.4C266.7,30.6,266,31.5,266,32.6z"/>
	<path class="st1" d="M340.3,36.5v16.7c0,7.3-3.5,12.2-8.8,12.2h-26.9V24.3h26.9C336.7,24.3,340.3,29.2,340.3,36.5z M333.9,32.6
		c0-1.1-0.7-2-1.5-2H311v28.5h21.4c0.8,0,1.5-0.9,1.5-2V32.6z"/>
	<path class="st1" d="M350.4,32.6v9.1h19.9V48h-19.9v9c0,1.1,0.7,2,1.5,2h21.4v6.3h-20.5c-5.2,0-8.8-4.9-8.8-12.2V36.5
		c0-7.3,3.5-12.2,8.8-12.2h20.5v6.3h-21.4C351.1,30.6,350.4,31.5,350.4,32.6z"/>
	<path class="st1" d="M397.8,44.8l14.6,20.6h-9L392,49.3l-11.5,16.1h-6.4l14.6-20.6l-14.6-20.6h9l11.5,16.1l11.5-16.1h6.4
		L397.8,44.8z"/>
</g>
<linearGradient id="SVGID_1_" gradientUnits="userSpaceOnUse" x1="4.8736" y1="37.8238" x2="87.5936" y2="37.8238" gradientTransform="matrix(1 0 0 -1 -4.83 79.86)">
	<stop  offset="0" style="stop-color:#DD1FFF"/>
	<stop  offset="1" style="stop-color:#5F8CFB"/>
</linearGradient>
<path class="st2" d="M56.5,16.4l-0.1,0.1l-0.2-0.1c-0.1,0.1-0.2,0.2-0.2,0.4c0,0,0,0,0,0.1c0.2,0.2,0,0.3,0,0.5c0,0.2,0,0.3,0.1,0.5
	c0,0.1,0.1,0.2,0.2,0.2c0.1,0.1,0.3,0.1,0.4,0.2l0.6,0.3c0,0,0.1,0,0.2,0c0.1,0,0.1,0.2,0.2,0.2s0.1,0.1,0.1,0.1
	C57.9,19,58,19,58.1,19c0.1,0,0.2,0,0.2,0.1l0,0c0.2,0,0.3,0.2,0.5,0.3H59c0.1,0,0.2,0,0.2,0.1c0.1,0.1,0.1,0.2,0.3,0.2
	s0.1,0,0.1,0.1s0.1,0.1,0.2,0.1c0.1,0,0.2,0.1,0.2,0.1c0,0,0,0.1,0,0.1c0,0,0.1,0,0.1,0c0.2,0,0.4,0.1,0.6,0.2l0.2,0.1
	c0,0,0.1,0,0.1,0.1c0.1,0.1,0.1,0.2,0.2,0.2c0.1,0.1,0.2,0.1,0.3,0.2c0.1,0.1,0.1,0.2,0.2,0.3c0.2-0.1,0.5,0,0.8,0
	c0.1,0,0.2,0,0.3,0s0.4-0.1,0.6,0c0.1,0,0.3,0,0.4,0c0.1,0,0.1,0,0.2,0c0.2,0,0.5,0,0.8,0c0,0,0.1,0,0.1,0s0.3,0.1,0.5,0.1
	s0.2,0.1,0.3,0c0,0,0.1,0,0.1,0c0.2,0,0.3,0.1,0.5,0.1c0.2,0,0.3,0,0.5,0c0.2,0,0.4,0,0.6,0c0.1,0,0.2,0,0.3,0c0.1,0,0.2,0,0.3,0
	c0.3,0.1,0.7,0.1,1,0.1c0.2,0,0.4,0,0.6,0c0.1,0,0.1,0,0.2,0c0.1,0,0.2,0.1,0.3,0s0.1,0,0.1,0s0.2,0,0.3,0.1s0.1,0,0.1,0
	c0.2,0,0.3,0,0.5,0c0.2,0.1,0.3,0.1,0.5,0.1c0.1,0,0.3,0.1,0.4,0.1c0.2,0,0.5,0.2,0.7,0.1c0.1,0,0.2,0.1,0.3,0.1c0.2,0,0.3,0,0.5,0
	c0.3,0.1,0.6,0.2,0.8,0.3c0.1-0.1,0.2-0.1,0.3,0c0,0,0,0,0,0c0,0,0.1,0.1,0.2,0.1c0.2,0,0.3,0.1,0.4,0.2c0.1,0,0.1,0,0.2,0
	c0.1,0,0.1,0,0.2,0c0.1,0,0.2,0.2,0.3,0.2s0.2,0.1,0.3,0.2c0,0,0.1,0,0.1,0c0.2,0,0.3,0.2,0.5,0.3s0.1,0.1,0.1,0.1c0,0,0,0.1,0,0.1
	c0.2,0,0.2,0.1,0.2,0.3s0.1,0.1,0.1,0.1c0.1,0.1,0.1,0.2,0.1,0.3c0,0.1,0.1,0.2,0.2,0.3c0.1,0.1,0.1,0.2,0.2,0.2s0.2,0.3,0.3,0.4
	s0.1,0,0.2,0.1c0,0.1,0,0.1,0,0.2c0,0.2,0.1,0.4,0.2,0.6s0.2,0.2,0.2,0.3c0,0.1,0.1,0.1,0.1,0.1c0.1,0.1,0.2,0.1,0.2,0.3
	c0,0.1,0,0.2,0.1,0.2c0.1,0.1,0.2,0.2,0.2,0.3c0,0,0,0.1,0,0.1s0.2,0.3,0.2,0.5c0.1,0.2,0.2,0.3,0.2,0.5c0,0,0,0.1,0,0.1
	c-0.1,0.2,0.1,0.4,0.2,0.5l0.2,0.2l0.1,0.1l0.2,0.3c0,0,0,0,0,0.1c0,0.3,0,0.5,0.2,0.8c0,0.1,0.1,0.2,0,0.2s0,0.2,0,0.2
	c0,0.1,0,0.2,0.1,0.3c0,0,0,0,0.1,0l-0.1,0.1l0.2,0.1c-0.1,0.2,0,0.5,0,0.7s0,0.4,0,0.6c0,0.2,0,0.4,0.1,0.6c0,0.1,0,0.2,0,0.2
	c0,0.3,0,0.7,0,1c0,0.1,0,0.3,0,0.4v0.1c0,0.1,0,0.3,0.1,0.4s0.1,0,0.1,0s0,0.1,0.1,0.1s0,0,0,0s0,0.2,0.1,0.2s0.1,0.1,0.1,0.1
	s0,0.1,0.1,0s0.1,0.1,0,0.1s0,0.2,0.1,0.3s0,0,0,0.1s0.1,0.3,0.2,0.4s0,0,0.1,0c0.2,0.1,0.3,0.3,0.3,0.5c0,0,0,0.1,0.1,0.1
	c0.1,0.1,0.2,0.2,0.1,0.3c0,0.1,0,0.2,0.1,0.3c0.1,0.1,0.1,0.2,0,0.4c0,0.1,0,0.1,0,0.2h0.1c0,0.1,0.1,0.2,0.1,0.3
	c0,0.1,0,0.2,0.1,0.3c0,0,0,0.1,0,0.1c0,0.2-0.1,0.3-0.1,0.5s0,0.2,0,0.3l-0.1,0.5c0,0.1,0,0.1,0,0.2c0,0.1,0,0.2,0,0.4
	c0,0.2,0,0.4-0.1,0.6h-0.1c-0.1,0.1-0.1,0.3-0.1,0.4c0,0.1,0,0.2,0,0.3c-0.1,0.3-0.1,0.5-0.1,0.8c0,0.2,0,0.3-0.1,0.5
	c-0.1,0.1-0.2,0.3-0.2,0.4c0,0.1,0,0.3,0,0.4l0,0c-0.1,0-0.1,0.1-0.1,0.2c0,0.1-0.1,0.1-0.1,0.2s-0.1,0.1-0.1,0.1
	c0,0.2,0,0.4-0.1,0.5c-0.1,0.2-0.1,0.4-0.1,0.6c0,0.1,0,0.2-0.1,0.2c-0.1,0.1-0.1,0.2-0.1,0.3v0.3L81.2,47v0.4c0,0,0,0.1,0,0.1
	c-0.1,0.1-0.1,0.3-0.1,0.4c0,0.1,0,0.1-0.1,0.2c-0.1,0.1-0.1,0.3-0.1,0.4c0,0.2,0,0.5,0,0.7c0,0,0,0.1,0,0.1c0,0.3,0,0.5,0,0.8
	c0,0.2,0,0.4,0,0.7s0.1,0.6,0.1,0.9c0,0.1,0.1,0.3,0,0.4s0,0.1,0,0.1c0,0.1,0.1,0.2,0.1,0.3c0,0.1,0,0.2,0,0.3c0,0.3,0,0.6,0,0.9
	c0,0.1,0,0.2-0.1,0.3s0,0.1,0,0.1s0.1,0.2,0.1,0.2c0,0.2,0,0.5,0,0.7c0,0.1,0,0.2,0,0.3c0,0.1,0,0.1,0,0.2s0.1,0.1,0,0.2
	s0.1,0.1,0,0.2s0,0.1,0,0.1s-0.1,0.2-0.1,0.2v0.4c0,0.1,0,0.2-0.1,0.3c0,0,0,0.1,0,0.1c0,0.2,0,0.3,0,0.5c0,0,0,0.1,0,0.1
	c0.1,0.2,0,0.3,0,0.5s-0.2,0.1-0.2,0.2s0,0.2,0,0.3c0,0.1,0,0.2,0,0.3c0,0.1,0,0.2-0.1,0.3s0,0.4-0.2,0.5c0,0,0,0.1,0,0.1
	c0,0.1,0,0.2-0.1,0.3c-0.1,0.1-0.2,0.2-0.2,0.4c0,0.2,0,0.4-0.1,0.5c-0.1,0.2-0.1,0.4-0.2,0.5c0.1,0.2-0.1,0.2-0.1,0.3
	c-0.1,0.1-0.1,0.2-0.1,0.4c0,0.1,0,0.2-0.1,0.2c-0.1-0.1-0.2,0-0.3,0s0,0.2,0,0.3c-0.1,0.1-0.1,0.3-0.2,0.4l0,0
	c0,0.2-0.2,0.3-0.3,0.4v0.2c-0.1,0.1-0.2,0.2-0.2,0.4l-0.2,0.1c0,0-0.1,0.1-0.1,0.1c0,0.2-0.1,0.3-0.2,0.4c0,0,0,0.1,0,0.1
	s0,0.1-0.1,0.1s-0.1,0.2-0.3,0.3s-0.1,0.1-0.1,0.2s-0.1,0.2-0.2,0.2c-0.3,0.1-0.3,0.4-0.5,0.6s-0.1,0.2-0.2,0.2s0,0,0,0
	c-0.1,0.3-0.4,0.4-0.4,0.7l0,0c-0.1,0.1-0.2,0.2-0.2,0.4c0,0.1,0,0.3,0,0.4c0,0.2-0.1,0.3-0.2,0.4c-0.1,0.2-0.1,0.4-0.2,0.6
	c0,0,0,0.1,0,0.1c-0.2,0.2-0.4,0.4-0.4,0.6c-0.1,0.2-0.2,0.4-0.3,0.5c0,0.1-0.1,0.1-0.1,0.2c0,0.1-0.1,0.2-0.2,0.2
	c0,0.1,0,0.1,0,0.2c0,0.2-0.1,0.3-0.2,0.4c0,0,0,0.1,0,0.1c-0.1,0.3-0.3,0.5-0.6,0.8s-0.2,0.2-0.3,0.4c0,0.1-0.1,0.1-0.2,0.1
	c-0.2,0.1-0.3,0.3-0.4,0.5c-0.1,0.1-0.1,0.2-0.2,0.3c-0.1,0.1-0.2,0.2-0.3,0.4c-0.1,0.1-0.1,0.2-0.2,0.2c-0.1,0.1,0,0.2-0.2,0.2
	s0,0,0,0.1S72,74.3,72,74.3c-0.1,0.2-0.3,0.3-0.5,0.3c-0.2,0.1-0.3,0-0.4,0l0.1-0.1c0-0.1-0.1-0.1,0-0.2s0,0,0,0s0-0.3,0-0.5
	c-0.1-0.1-0.2-0.1-0.2,0c-0.3,0.1-0.5,0.3-0.7,0.6c-0.1,0.1-0.2,0.2-0.3,0.2c0,0-0.1,0-0.1,0c-0.2,0.2-0.5,0.3-0.7,0.3
	c-0.1,0-0.2,0.1-0.3,0.1c-0.4,0.2-0.8,0.2-1.1,0.3c-0.1,0-0.3,0-0.4,0c-0.2,0-0.4,0-0.6,0c-0.1,0-0.1,0-0.2,0
	c-0.2-0.1-0.4-0.1-0.7-0.2s-0.1-0.2-0.1-0.3h-0.2l0.2-0.2c-0.1-0.1-0.1-0.3,0-0.4c-0.1,0-0.1,0-0.2,0s-0.3,0-0.4,0.1
	c-0.2,0-0.3,0.2-0.6,0.1s-0.2,0.1-0.3,0.1c-0.1,0.1-0.3,0.1-0.4,0c-0.2-0.1-0.4-0.2-0.6-0.3c-0.1,0-0.1-0.1-0.2-0.2s0-0.2,0-0.3
	c-0.1,0-0.3-0.1-0.4-0.2c-0.1-0.1-0.2-0.3-0.2-0.4c0,0,0-0.1,0-0.1s-0.1-0.4-0.2-0.6s-0.1-0.2-0.2-0.3C62.1,72.2,62,72.1,62,72
	c-0.1,0-0.3,0.1-0.4,0.2c-0.3,0.2-0.8,0.1-1-0.2c0,0,0,0,0,0c0,0-0.1-0.1-0.1-0.1c0.1-0.2,0.1-0.3,0.3-0.4c0.2-0.2,0.3-0.4,0.4-0.6
	c-0.1,0-0.2-0.1-0.2-0.3c0-0.1,0-0.2,0-0.2c0-0.1,0-0.2,0-0.3c-0.1-0.2-0.2-0.4-0.3-0.6c0-0.1,0-0.1,0-0.2c0-0.2-0.1-0.4-0.3-0.5
	c0.1-0.2,0.2-0.4,0.2-0.6l0,0c0.2-0.1,0.2-0.4,0.4-0.6c-0.1-0.1,0.2-0.1,0.2-0.2c0-0.1,0.1-0.2,0.1-0.3c0-0.1,0-0.2,0.1-0.3
	c0.1-0.3,0.2-0.7,0.6-0.8l-0.3-0.1c0.1-0.1,0.2-0.2,0.3-0.2s0.2-0.1,0.3-0.1h-0.1l0,0h0.2l0.1-0.3h0.2c0.1-0.1,0.1-0.2,0.2-0.2
	c0-0.1,0.1,0,0.2-0.1c0.1-0.1,0.3-0.2,0.4-0.2c0,0,0,0,0.1-0.1c0.1-0.1,0.2-0.2,0.2-0.2c0.1,0,0.1-0.1,0.2-0.2s0.2-0.3,0.4-0.3
	s0.2-0.2,0.3-0.3s0.1,0,0.1-0.1c0-0.1,0.1-0.1,0.1-0.2c0.1,0,0.1-0.1,0.2-0.2c0.1-0.2,0.2-0.4,0.4-0.5c0.1,0,0.1-0.1,0.2-0.2
	c-0.3-0.1-0.4-0.4-0.6-0.7c-0.1-0.1,0-0.2-0.1-0.3c-0.1-0.3-0.2-0.5-0.3-0.8c-0.1-0.3-0.2-0.5-0.3-0.8s0-0.3-0.1-0.4
	c-0.1-0.2-0.2-0.4-0.2-0.7c0-0.2,0-0.4-0.2-0.5s0-0.1,0-0.1c0,0,0-0.1,0-0.1c0-0.3-0.1-0.3,0-0.4s-0.2-0.2,0-0.3c0,0,0-0.1,0-0.1
	c-0.1-0.1,0-0.2-0.1-0.3s0-0.1,0-0.1c0,0,0,0,0-0.1c-0.1-0.1,0-0.2,0-0.2s0.1-0.3,0.1-0.5c0-0.4,0.1-0.7,0.1-1.1
	c0-0.2,0.1-0.4,0.2-0.5c0.1-0.1,0.2-0.3,0.2-0.5c0-0.1,0-0.2,0.1-0.3c0-0.1-0.1,0,0-0.1s0.1-0.2,0.1-0.3c0.1-0.1,0.1-0.2,0-0.3
	c0-0.1,0-0.2,0.1-0.2s0.3-0.2,0.5-0.3l-0.1-0.2l0.1-0.1c0.1,0,0.1,0,0.1-0.1s0.2-0.3,0.3-0.4s0.2-0.2,0.4-0.3l0-0.2l0.1-0.1l0,0
	c0-0.1,0-0.2,0-0.3c0.1-0.1,0.1-0.2,0.1-0.3c0,0,0-0.1,0.1-0.1s0.1-0.1,0.1-0.2c0-0.1,0.1-0.1,0.1-0.2c0,0,0.1-0.1,0.1-0.1
	c0.1-0.1,0.1-0.2-0.1-0.3s-0.3-0.2-0.5-0.3L66,49.2l-0.3-0.2c-0.1,0-0.1-0.1-0.2-0.1c0,0-0.1,0-0.1-0.1c-0.1-0.2-0.3-0.3-0.3-0.6
	s-0.2-0.3-0.3-0.4h-0.3c-0.1,0.1-0.1,0.2-0.2,0.3s-0.2,0.2-0.2,0.3s0.1,0.1,0,0.2s-0.1,0.1-0.1,0.2s-0.1,0.1-0.1,0.2s0,0-0.1,0
	c-0.1,0-0.2,0.1-0.2,0.2c0,0.1-0.1,0.1-0.2,0.2v0.2h-0.2l0.1,0.1c-0.3,0.1-0.3,0.3-0.4,0.5c-0.1,0.2-0.2,0.4-0.3,0.5
	c0,0,0,0.1,0,0.1c0,0,0,0.1,0,0.1c-0.1,0.1-0.2,0.2-0.2,0.3c0,0.1,0,0.1-0.1,0.2c-0.1,0.1-0.1,0.2-0.1,0.4v0.1c0,0-0.1,0.2-0.2,0.2
	c-0.1,0.1-0.1,0.2,0,0.3c0,0,0,0.1,0,0.1c-0.1,0.2-0.1,0.3-0.2,0.5c0,0.1,0,0.1,0.1,0.2c-0.2,0.1-0.1,0.3-0.1,0.4s0.3,0.2,0.3,0.5
	c0,0.1,0,0.2,0,0.2c0,0,0,0.1,0,0.1c0,0.1,0,0.3,0,0.4c0,0.2,0,0.4,0.1,0.5c0,0.1,0,0.3,0,0.4l0.2,0.2c0,0-0.1,0.1-0.1,0.1
	s0,0.1,0.1,0.2c-0.1,0.1-0.2,0.2-0.2,0.3c0,0.1,0,0.3,0.1,0.3l-0.1,0.1c0,0.1,0,0.3,0.1,0.3c0,0.1,0,0.2,0,0.3c0,0.1,0,0.2,0.1,0.2
	v0.2c0,0,0,0.1,0,0.2s0,0.3,0,0.5s0,0,0,0l-0.2,0.6c0,0,0,0.1,0,0.1c0,0.1,0,0.1,0,0.2c-0.1,0.1-0.2,0.2-0.3,0.4s-0.1,0.1-0.1,0.2
	s0,0.1,0,0.1c-0.1,0.1-0.2,0.1-0.3,0.2v0.1h-0.1c-0.1,0-0.3,0.1-0.4,0.2c0,0-0.1,0-0.2,0.1S60.7,61,60.6,61s-0.2,0-0.2,0.1
	s-0.1,0.1-0.1,0.2l-0.1-0.1c-0.1,0.1-0.1,0.2,0,0.2c0,0,0,0,0,0c0.1,0.1,0.1,0.3,0.2,0.4c0,0,0,0.1,0,0.1c-0.1,0.1-0.1,0.2,0,0.2
	c0,0.1,0,0.2,0,0.3c0,0.1-0.1,0.2,0,0.3 M60.4,63c-0.1,0.1-0.1,0.2,0,0.2c0,0.1,0,0.2,0,0.3c0,0.1,0,0.2,0,0.3c0,0,0,0.1,0,0.1
	s-0.1,0.2,0,0.3c0,0-0.1,0.1,0,0.2s-0.1,0.4-0.2,0.6c0,0.1-0.1,0.2-0.1,0.2c-0.1,0.2-0.2,0.3-0.2,0.5c0,0.1,0,0.2-0.1,0.2
	c0,0,0,0.1,0,0.2s-0.2,0.1-0.3,0.3s0,0.1,0,0.2c-0.1,0.2-0.1,0.5-0.2,0.7c0,0,0,0.1,0,0.1c0,0.1,0,0.2-0.1,0.3s0,0.1,0,0.2
	c0,0.1,0,0.2-0.1,0.3c-0.1,0.1-0.2,0.2-0.2,0.4c0,0,0,0,0,0.1c0,0.3-0.2,0.6-0.2,0.8c0,0,0,0,0,0.1c-0.1,0.1-0.2,0.3-0.3,0.5
	c0,0.1-0.1,0.1,0,0.1c0,0.1,0,0.2-0.1,0.3c0,0,0,0.1,0,0.1c0,0.2,0,0.2-0.3,0.5c0,0.1,0,0.2-0.1,0.2c0,0.1-0.1,0.1-0.1,0.2
	c0,0.1,0,0.1,0,0.2c-0.1,0.1-0.1,0.3-0.2,0.4c-0.1,0.2,0,0.1,0,0.1s0,0,0.1,0.1c0.1,0.1,0.2,0.3,0.2,0.4c0,0,0,0,0,0.1h0.2
	c0,0.1,0,0.1,0,0.2s0,0,0,0c0.2,0.1,0.1,0.2,0.1,0.3c0,0.1,0.1,0.2,0.1,0.4c0,0.1,0,0.1,0,0.2h0.2c-0.1,0-0.1,0.1-0.2,0.1
	c-0.1,0.1-0.1,0.1,0,0.2s0.1,0.2,0,0.2c-0.1,0.1-0.1,0.2,0,0.3c0,0.1,0,0.2-0.1,0.3c-0.1,0.1-0.1,0.3-0.3,0.4
	c-0.1,0-0.1,0.1-0.2,0.2c0,0.1-0.1,0.2-0.3,0.3c-0.1,0.1-0.3,0.1-0.2,0.3s-0.1,0.2-0.2,0.3L56.8,77l-0.1,0.2c0,0,0,0.1,0,0.1
	c-0.2,0.1-0.2,0.2-0.2,0.4c0,0.1-0.1,0.1-0.1,0.2c0,0.1,0,0.1-0.1,0.2c0,0-0.1,0-0.1,0.1c-0.2,0.4-0.5,0.8-0.8,1.2
	c0,0.1-0.1,0.1-0.1,0.2c0,0.2-0.2,0.2-0.3,0.3c0,0.1,0,0.1,0,0.2c0,0.1,0,0.1-0.1,0.2l0,0c-0.3,0.2-0.5,0.5-0.8,0.7
	c-0.1,0.1-0.2,0.2-0.3,0.4c0,0.1-0.1,0.1-0.2,0.2c-0.1,0.1,0,0.2,0.1,0.2l0.8,0.2c0.3,0.1,0.7,0.2,1,0.3c0.3,0.1,0.6,0.2,0.9,0.1
	c0.2,0,0.3,0,0.4,0.2s0.2,0.1,0.2,0.2c0,0.3,0,0.3-0.2,0.5c0,0-0.1,0-0.1,0c-0.2,0-0.4,0-0.6,0.1H53c-0.3,0-0.5,0-0.8-0.1
	c-0.1-0.1-0.2,0-0.3,0.1c0-0.1-0.2-0.2-0.3-0.2c-0.2,0-0.4,0-0.6,0c-0.1,0-0.3,0-0.4,0h-0.5c0,0-0.1,0-0.1-0.1l-0.2,0.1l0.1-0.3
	c-0.2-0.1-0.4,0-0.6-0.1c0,0,0-0.1,0-0.1s-0.1-0.1,0-0.2c0.1,0,0.2-0.1,0.3-0.2c0.1-0.1,0.2-0.2,0.2-0.3c0,0,0-0.1,0-0.1
	c0.1-0.1,0.1-0.1,0-0.2c0.1-0.1,0-0.1,0-0.2s0-0.2,0-0.2c0-0.2-0.1-0.3-0.2-0.4c0,0-0.1-0.1-0.1-0.1s-0.1-0.2-0.1-0.4
	c0-0.1-0.1-0.2-0.1-0.3c0-0.2,0-0.5-0.1-0.7c0-0.1-0.1-0.2,0-0.3c0.1-0.1,0-0.4-0.1-0.5c-0.1-0.1-0.1-0.3,0-0.5c0-0.1,0-0.1,0-0.2
	c0-0.4,0-0.9,0-1.3c0-0.1,0-0.3-0.1-0.4c0,0,0-0.1,0-0.1c0-0.2,0-0.4,0-0.6s0.1-0.1,0-0.2c0.1-0.1,0-0.3,0.1-0.5
	c0.1-0.1,0.1-0.3,0-0.5c0-0.1,0-0.3,0.1-0.4c0,0,0.1,0,0.1-0.1c0-0.3,0.2-0.6,0.3-0.8c0,0,0,0,0-0.1c0.1-0.1,0.1-0.2,0.2-0.3
	c0-0.1,0.1-0.2,0.1-0.3c0,0,0-0.1,0-0.1c0-0.1,0-0.1,0-0.2c0-0.1,0-0.1,0-0.2h-0.1l-0.1-0.3c0,0,0-0.1-0.1-0.1
	c-0.1-0.2-0.1-0.2,0-0.3c0,0-0.1-0.1,0-0.1c-0.1,0-0.1-0.1-0.1-0.2c0-0.1,0-0.1,0-0.2v-0.2c0-0.1-0.2-0.2-0.1-0.4
	c-0.2-0.2-0.1-0.6-0.1-0.8l0,0c-0.1-0.4-0.1-0.7-0.1-1.1c0,0,0-0.1,0-0.1s-0.1-0.2-0.1-0.4s0-0.3-0.1-0.4C48.8,67,48.9,67,49,67
	c0.1,0,0-0.2-0.1-0.4c0-0.1,0-0.3-0.1-0.4c-0.1-0.2-0.1-0.3-0.2-0.5c-0.1-0.1-0.1-0.3-0.3-0.3s-0.1,0-0.1-0.1l-0.3,0.2
	c-0.1-0.1-0.1-0.3-0.2-0.4C47.6,65,47.5,65,47.4,65c-0.2,0-0.3,0-0.5-0.1c-0.2,0-0.3-0.1-0.5-0.1c-0.2,0-0.4,0.1-0.4,0.3
	c0,0.1,0,0.1-0.1,0.2c-0.2,0.1-0.3,0.3-0.4,0.5v0.1c-0.2,0.2-0.4,0.3-0.6,0.5c-0.1,0.1-0.2,0.3-0.3,0.4c0,0.1-0.1,0.2-0.2,0.2
	c-0.1,0.1-0.2,0.2-0.3,0.3c-0.1,0.1-0.1,0.3-0.3,0.3c-0.1,0.1-0.2,0.1-0.2,0.2c0,0.1-0.1,0.2-0.2,0.2c0,0,0,0-0.1,0.1
	c-0.1,0.1-0.1,0.1-0.3,0.2h0.1l-0.3,0.4c0,0-0.1,0.1-0.1,0.1c-0.2,0-0.2,0.1-0.3,0.2c-0.1,0.1-0.2,0.2-0.3,0.3
	c-0.1,0.1-0.2,0.2-0.3,0.3c-0.1,0.1-0.2,0.2-0.3,0.4c-0.2,0.1-0.3,0.4-0.5,0.5c-0.1,0-0.1,0.2-0.2,0.2c-0.1,0.2-0.3,0.5-0.5,0.6
	c0,0.2-0.1,0.3-0.2,0.5c0,0.1,0,0.2,0,0.3c0,0.1-0.1,0.2-0.1,0.3c0,0-0.1,0-0.1,0c-0.2,0-0.3,0.2-0.5,0.2c-0.2,0.1-0.4,0.2-0.5,0.4
	c-0.1,0.2-0.3,0.3-0.5,0.3c-0.1,0.1-0.1,0.3,0,0.5c0,0.2,0.1,0.3,0.1,0.4l-0.1,0.2c0.1,0.1,0.1,0.2,0,0.3c0,0,0,0.1,0,0.2
	s0,0.1,0,0.1s-0.1,0.2-0.1,0.3s-0.1,0.4-0.1,0.6c0,0.2,0,0.4-0.1,0.7c0,0.2-0.1,0.4-0.2,0.5c0,0,0,0.1,0,0.1s0,0.3,0,0.5l0,0
	c-0.1,0.1-0.2,0.3-0.2,0.5c0,0.1,0,0.2-0.1,0.2c0,0.1,0,0.1,0,0.2c0,0.2,0,0.3-0.1,0.5c-0.1,0.1-0.1,0.3-0.1,0.4
	c0,0.1-0.1,0.1-0.1,0.1s-0.1,0.1,0,0.1l0,0c-0.1,0.1-0.1,0.3-0.2,0.4c0,0.1,0,0.2-0.1,0.3s0,0.1,0,0.1c0,0.2-0.1,0.4-0.2,0.5
	c-0.2,0.1-0.3,0.4-0.3,0.6l0.2,0.2l0.8,0.2l-0.1,0.1c0,0,0.1,0,0.1,0c0.2,0,0.3,0.1,0.3,0.2c0,0.1,0.1,0.1,0.2,0.2
	c0.2,0.1,0.4,0.2,0.6,0.3c0.1,0.1,0.1,0.1,0.1,0.2v0.4l0,0c-0.2,0-0.3,0-0.5,0.2c0,0-0.1,0-0.1,0.1c-0.4,0.1-0.7,0.2-1.1,0.2h-0.4
	c0,0-0.1,0-0.2,0C36.5,84,36.3,84,36.1,84h-1c-0.4,0-0.7,0-1.1-0.1c-0.2,0-0.4,0-0.6-0.1c-0.1,0-0.2,0-0.3-0.1
	c-0.2,0-0.2-0.2-0.1-0.3l-0.3-0.2h0.3c0.1-0.1,0-0.2,0.1-0.2L33,82.9c0.2-0.2,0.3-0.3,0.5-0.3c0.2,0,0.3-0.1,0.4-0.2
	c0,0-0.1-0.1-0.1-0.1c-0.1-0.1-0.2-0.2-0.2-0.3c-0.1-0.1-0.2-0.2-0.3-0.3s-0.2-0.2-0.3-0.3c-0.1-0.1-0.2-0.2-0.3-0.2
	s-0.1-0.2-0.2-0.3c-0.1-0.1-0.1-0.3-0.1-0.4c-0.2-0.2-0.4-0.4-0.5-0.7c-0.1-0.1-0.1-0.3-0.1-0.4c0-0.1-0.1-0.2-0.2-0.3
	c-0.1-0.1-0.2-0.2-0.2-0.4c0-0.2-0.1-0.4-0.2-0.6s-0.1,0-0.1-0.2s-0.2,0-0.1-0.2c-0.2-0.2-0.2-0.4-0.2-0.6c-0.1-0.2-0.2-0.5-0.2-0.7
	c0-0.1,0-0.2,0-0.3c0,0-0.1-0.1-0.1-0.1s-0.1-0.1-0.1-0.2c-0.1-0.1-0.2-0.2-0.2-0.4c0-0.1,0-0.2-0.1-0.3C30.1,75.1,30,75,30,74.9
	c0-0.1-0.1-0.2-0.2-0.3c0,0,0-0.1,0-0.1c0-0.1-0.1-0.1-0.1-0.1c0.1-0.1,0-0.3,0-0.5c-0.1-0.1-0.1-0.3-0.1-0.5v-0.2
	c0-0.1,0-0.1-0.1-0.1c0.1-0.1,0-0.3,0-0.4c0,0,0-0.1,0-0.1c0.2-0.2,0-0.4,0-0.6s-0.2-0.3-0.3-0.4c-0.1-0.1-0.1-0.3-0.2-0.4
	c0,0,0-0.1,0-0.1c-0.2-0.1-0.2-0.4-0.3-0.5s0-0.2-0.2-0.2s0,0,0-0.1s-0.1-0.2-0.1-0.3s-0.1-0.2-0.1-0.3s0-0.1,0-0.1
	s-0.2-0.4-0.3-0.5s-0.2-0.5-0.3-0.7c0,0,0-0.1,0-0.1c0-0.1,0-0.2-0.1-0.2s-0.1-0.3-0.3-0.4s0-0.1,0-0.1c0-0.1-0.1-0.1-0.1-0.2
	c0-0.1-0.1-0.1-0.2-0.2l0,0l-0.3-0.4c0-0.1-0.1-0.2-0.1-0.3c-0.1-0.2-0.2-0.4-0.3-0.7c0,0,0-0.1-0.1-0.1c0,0-0.1-0.1-0.1-0.1
	s0-0.2,0-0.2s-0.1-0.1-0.1-0.2s-0.1-0.2-0.1-0.2s0-0.2,0-0.3c0-0.1,0-0.2-0.1-0.4c0-0.1-0.1-0.1-0.1-0.2l0.1-0.1
	c-0.1-0.1-0.1-0.3-0.1-0.4c0-0.2,0-0.4,0-0.6c0-0.1,0-0.2,0.1-0.3s0.1-0.1,0.1-0.1c0-0.2,0.1-0.3,0.2-0.5c0,0,0-0.1,0.1-0.1
	c0.1,0,0.2-0.2,0.2-0.3c0-0.2,0.1-0.5-0.1-0.7s0-0.2-0.1-0.3l0,0c0.1-0.1,0.1-0.3,0-0.4l0,0c0.1-0.1,0.1-0.2,0.1-0.3s0,0-0.1-0.1
	s0-0.1,0-0.1c0-0.1-0.1-0.3-0.1-0.4c0-0.2-0.1-0.3-0.1-0.4s0,0,0-0.1v-0.1c-0.1-0.1,0-0.2-0.1-0.3c-0.1-0.1-0.1-0.3-0.1-0.4
	c0,0,0-0.1,0-0.1c-0.1-0.1,0-0.1,0.1-0.2c-0.1-0.1-0.1-0.3-0.1-0.4c0-0.1,0-0.2,0-0.3c0-0.1,0-0.1,0-0.2c0-0.2,0-0.3,0-0.5
	c0,0,0,0-0.1,0s0.2-0.3,0.1-0.4s0-0.1,0-0.2s0.1-0.2,0-0.4c0-0.1,0-0.2,0-0.3c0-0.1,0-0.3-0.1-0.3c0,0-0.1,0-0.1-0.1
	c0-0.2-0.2-0.4-0.2-0.7s-0.1-0.2-0.1-0.3c0-0.1,0-0.2-0.1-0.3l0,0c-0.2-0.1-0.2-0.3-0.2-0.5c0-0.2-0.1-0.5-0.3-0.7c0,0,0-0.1,0-0.1
	c0-0.1-0.1-0.2-0.1-0.3c-0.1-0.1-0.1-0.2-0.2-0.3c-0.1-0.1-0.1-0.3-0.2-0.4l-0.1-0.2c-0.1-0.1,0-0.2-0.1-0.3c-0.1,0-0.2-0.1-0.2-0.2
	c0,0,0,0-0.1,0s0,0,0,0s-0.1,0.1-0.1,0.1s0.1,0.2-0.1,0.3l-0.2-0.3c0-0.2,0.2-0.3,0.4-0.3l-0.1-0.2c0-0.1,0-0.1-0.1-0.2
	c0,0-0.1-0.1-0.1-0.1l0,0l0,0c-0.1,0-0.2-0.1-0.2-0.3c0-0.1-0.1-0.2-0.1-0.3c0,0,0-0.1-0.1-0.1c-0.1-0.1-0.2-0.2-0.3-0.3
	c0,0.1,0,0.1-0.1,0.2c0,0.1,0,0.1,0,0.2c0,0.1,0.1,0.1,0.1,0.2l-0.1,0.1c-0.1-0.2-0.2-0.4-0.2-0.6h0.1c0.1,0,0.1-0.2,0.1-0.2
	c0,0,0,0,0,0c0-0.1-0.1-0.2-0.1-0.3c-0.1-0.2-0.2-0.5-0.1-0.7c0-0.1,0-0.1,0-0.2c-0.1-0.1-0.2-0.3-0.2-0.5c0,0,0-0.1-0.1-0.2
	c-0.1-0.1-0.3-0.3-0.4-0.3c-0.2,0-0.3-0.1-0.5-0.2c-0.1-0.1-0.2-0.1-0.3-0.2c-0.1,0-0.2-0.1-0.1-0.2c-0.1,0-0.2-0.1-0.3-0.1
	c-0.1-0.1-0.2-0.1-0.3-0.2l-0.1-0.1c-0.1-0.1-0.3-0.2-0.4-0.3c-0.1-0.1-0.2-0.1-0.3-0.2L19.2,45c-0.1,0.1-0.1,0.3-0.2,0.5
	c0,0.2-0.1,0.3-0.2,0.4c0,0,0,0.1-0.1,0.1s-0.1,0.2-0.3,0.2s-0.2,0.1-0.3,0.1s0,0,0,0l0.1,0.2h0.1c0,0,0,0,0,0.1s0.1,0.3,0.3,0.4
	s0,0.1,0,0.1l-0.4-0.2c0-0.1,0-0.2-0.1-0.3s0-0.1,0-0.2s0-0.2-0.2-0.2c0,0.1,0,0.1,0,0.2c0,0.1,0.1,0.3,0,0.4c0,0.1,0,0.2,0.1,0.3
	c0,0,0,0,0,0.1c-0.1,0.2,0,0.3,0.1,0.4c0,0,0.1,0.1,0.1,0.1c0.1,0.2,0.1,0.3,0.3,0.4c0,0.1,0.2,0.2,0.2,0.3s0.1,0.1,0.2,0.1
	s0.1,0,0.1,0.1l-0.1,0.1l0,0c0.2,0.1,0.3,0.3,0.4,0.5c0,0.1,0.1,0.2,0.1,0.2s0.2,0.1,0.2,0.2c0,0.1,0,0.2,0,0.3
	c0,0.1,0.1,0.2,0.1,0.3c0.1,0.1,0.1,0.2,0.2,0.2c0.1,0.2,0.1,0.2,0.2,0.4c0.1,0,0.1,0.2,0.3,0.2s0.1,0.2,0.1,0.3
	c0,0.1,0,0.2,0.1,0.2c0.1,0.1,0.2,0.2,0.3,0.3c0.1,0.1,0.1,0.2,0.1,0.2c0,0.1,0,0.2,0,0.3s0,0.1,0.2,0.1c0.1,0.1,0,0.2-0.1,0.3
	c0,0,0,0,0,0c0.1,0.1,0.2,0.3,0.3,0.3c0,0,0.1,0.1,0.1,0.1c0,0.2,0,0.3,0,0.4s0,0.2,0.1,0.3s0,0.1-0.1,0.2s0,0.1,0,0.2
	c0,0,0.1,0.1,0.1,0.1c0,0.2,0,0.4,0,0.7c0,0.1,0,0.1,0,0.2c-0.1,0.2-0.2,0.3-0.1,0.5c0,0,0,0.1,0,0.1s-0.1,0.2,0,0.3l-0.1,0.3
	c0,0,0,0.1,0,0.1c0,0.1,0,0.2-0.2,0.3S21,57.2,21,57.2s-0.1,0.2-0.1,0.3l0,0c-0.2,0.1-0.1,0.3-0.1,0.4c0,0.1,0,0.1-0.1,0.2
	c0,0,0,0.1,0,0.2c-0.2,0.2-0.3,0.4-0.4,0.6c0,0.1,0,0.2-0.1,0.2s0,0.1-0.1,0.1c0,0-0.1,0.1-0.1,0.2c0,0,0,0.1-0.1,0.1
	c-0.2,0.2-0.3,0.4-0.4,0.7l0,0c-0.1,0.1-0.2,0.1-0.2,0.2c0,0.1,0,0.2-0.1,0.2s0,0.1,0,0.1s0,0.3,0.2,0.4s0.2,0.2,0.3,0.2l0.1,0.1
	c0.1,0.1,0.1,0.2,0.1,0.3c0.1,0.2,0.1,0.4,0.2,0.6h0c0.2,0.1,0.4,0.2,0.5,0.4c0.2,0.3,0.3,0.6,0.6,0.8c0.1,0,0.2,0.1,0.3,0.2
	c0.1,0.2,0.3,0.3,0.5,0.5c0,0,0.1,0.1,0.1,0.1c0.1,0.1,0.2,0.3,0.4,0.3c0.1,0.1,0.3,0.2,0.4,0.3v0.2c0.1,0,0.3,0.1,0.3,0.2
	c0.1,0.2,0.2,0.4,0.3,0.6s0.1,0.4,0.4,0.6l0,0c0,0.2,0.2,0.3,0.3,0.4s0.1,0.2,0.2,0.2s0,0.1,0,0.1s0.1,0.1,0.1,0.1s0,0.2,0.1,0.2
	s0,0.1,0,0.2s-0.1,0.2,0,0.2c0,0.2,0,0.3-0.1,0.5c-0.1,0.2-0.1,0.4,0,0.5c0.1,0.1,0.1,0.3,0,0.4l-0.1,0.1c0.1,0.1,0.2,0.2,0.3,0.3
	c0.1,0.1,0.2,0.1,0.2,0.2c0.1,0.1,0.3,0.2,0.3,0.4c0,0-0.1,0.1-0.1,0.1c0,0.1,0,0.2-0.1,0.2c-0.1,0.1-0.2,0.1-0.4,0.1h-0.2
	c-0.1,0-0.2,0-0.2,0c0,0-0.1,0-0.1-0.1l-0.4,0c0,0-0.1,0.1-0.1,0.2c0,0.1,0,0.2,0,0.3v0.1c0,0-0.1,0.2-0.2,0.3c0,0.1,0,0.2,0,0.2
	c0,0.1,0,0.2-0.1,0.2c0.2,0.3,0.1,0.8-0.3,0.9c0,0-0.1,0-0.1,0.1c0,0,0,0,0,0.1s0.1,0.1,0.1,0.2c0,0.1,0,0.1-0.1,0.2
	c-0.1,0.1-0.3,0.2-0.4,0.3c-0.1,0.1-0.3,0.2-0.5,0.3H22c-0.1-0.1-0.2-0.1-0.3-0.1c-0.2,0-0.4,0-0.5-0.1l0,0c-0.2,0.1-0.5-0.1-0.7,0
	c0,0.1,0,0.1,0,0.1s0.1,0.1,0.1,0.2h-0.2l0,0l0.3,0.1c0,0,0,0.1-0.1,0.1c0,0-0.1,0-0.1,0.1l0.1,0.2l-0.6,0.3c-0.1,0-0.1,0.1-0.2,0.1
	c-0.3,0-0.7,0-1,0c-0.3,0-0.5,0-0.8,0c-0.1,0-0.1,0-0.2,0c-0.1,0-0.1,0-0.2,0c-0.1-0.1-0.2,0-0.3-0.1C17.1,75,17,75,17,75h-0.2
	c-0.2,0-0.4-0.1-0.5-0.2c-0.1-0.1-0.2,0-0.3-0.1s-0.2-0.1-0.2-0.2s-0.3-0.2-0.5-0.4l0,0c-0.1,0-0.3-0.1-0.4-0.2c0,0-0.1,0-0.1,0
	c0,0.1,0,0.3,0.1,0.4c0.1,0.1,0.1,0.3,0.1,0.5c0,0.1-0.2,0.2-0.3,0.2l-0.3-0.1L14,74.8c-0.2-0.1-0.2-0.3-0.4-0.4c0,0,0,0,0-0.1
	c-0.1-0.2-0.3-0.4-0.5-0.5c-0.2-0.2-0.4-0.3-0.5-0.6c0-0.1-0.1-0.1-0.2-0.2s0,0-0.1-0.1l-0.2-0.2c-0.2-0.2-0.4-0.2-0.5-0.4l-0.4-0.4
	c-0.2-0.1-0.4-0.3-0.4-0.6h-0.2c-0.1-0.2-0.1-0.3-0.2-0.5c-0.1-0.1-0.2-0.3-0.3-0.4c-0.1-0.1-0.3-0.3-0.3-0.4
	c-0.1-0.1-0.2-0.2-0.3-0.4l0,0c-0.1-0.1-0.2-0.1-0.3-0.2S9,69.6,9,69.5s-0.1-0.1-0.2-0.2S8.7,69,8.6,68.8c-0.1-0.2-0.2-0.4-0.2-0.6
	c0,0,0,0,0-0.1c-0.2-0.1-0.1-0.4-0.4-0.4c-0.1,0-0.1-0.1-0.1-0.2c0-0.2-0.2-0.3-0.3-0.2c0,0,0,0,0,0c0-0.1,0-0.2-0.1-0.2
	c-0.1-0.1-0.2-0.2-0.2-0.3H7.1c-0.2,0-0.3-0.1-0.2-0.3c0-0.1,0-0.1,0-0.2c0-0.1-0.1-0.2-0.1-0.4H6.8l-0.3-0.2
	c-0.1-0.1-0.2-0.2-0.3-0.3s-0.3-0.3-0.4-0.5s-0.2-0.4-0.5-0.6C5.2,64.3,5,64.2,4.9,64c-0.1-0.1-0.2-0.3-0.3-0.4
	c-0.1-0.1-0.2-0.2-0.2-0.3c0-0.2-0.1-0.3-0.3-0.4c0,0-0.1-0.1-0.1-0.1s-0.1-0.3-0.2-0.4s-0.2-0.1-0.2-0.2S3.5,62.1,3.4,62
	c0-0.1-0.1-0.2-0.1-0.2c-0.1-0.1-0.1-0.2-0.2-0.3c0,0,0-0.1-0.1-0.1c-0.2-0.1-0.3-0.3-0.4-0.5c0-0.1-0.1-0.2-0.2-0.2s-0.1,0-0.1-0.1
	L2,60L2,59.9c0,0,0-0.1,0-0.1c-0.2-0.1-0.3-0.3-0.3-0.5c0-0.2-0.1-0.3-0.2-0.4c-0.1-0.1-0.2-0.2-0.2-0.4c0,0,0-0.1,0-0.1
	c0-0.2-0.1-0.4-0.2-0.6c0,0-0.1,0-0.1-0.1c0-0.1-0.1-0.2-0.1-0.2c0-0.1,0-0.1-0.1-0.2S0.6,57,0.6,56.9c0-0.1,0-0.2-0.1-0.2
	c0-0.1,0-0.1,0-0.2c0-0.1,0-0.2,0-0.3c-0.2-0.3-0.3-0.6-0.4-0.9c0-0.1-0.1-0.2-0.1-0.3s0.2-0.1,0.1-0.2l-0.1-0.1
	c0-0.1-0.1-0.1-0.1-0.2c0-0.2,0-0.3,0-0.5c0-0.1,0-0.3,0.1-0.3c-0.2-0.2-0.2-0.4,0-0.4c0,0,0,0-0.1-0.1c0,0,0-0.1,0-0.1
	c0-0.1,0-0.1,0-0.2c0-0.1,0-0.2,0.1-0.2c0.1,0,0,0,0-0.1s0.2-0.1,0.2-0.2c0-0.3,0-0.5,0.1-0.8c0.1-0.3,0.1-0.7,0.1-1
	c0-0.1,0-0.3,0-0.4c0-0.2,0.1-0.4,0.3-0.5l-0.2-0.1l0.1-0.1c-0.1-0.2,0-0.4,0.1-0.6l-0.1-0.1c0.1-0.1,0.1-0.2,0.1-0.3
	C1,48.4,1,48.3,1,48.2c0,0,0,0,0-0.1c0.2,0,0.1-0.2,0.2-0.3s0.1-0.2,0.2-0.3s0-0.1,0-0.1s0-0.2,0.1-0.3c-0.1-0.1-0.1-0.2-0.1-0.4
	c0,0,0-0.1,0-0.1c0.1-0.1,0.1-0.2,0-0.2c0,0,0-0.1,0-0.1c0,0,0-0.1,0-0.2c-0.1-0.2-0.1-0.3,0-0.5c0,0,0-0.1-0.1-0.2
	s-0.2-0.2-0.2-0.4s0-0.1,0-0.2c0-0.1,0-0.2,0-0.3c0-0.2,0-0.4,0-0.6c0-0.1,0.1-0.2,0-0.4c-0.1-0.1-0.1-0.2-0.1-0.3l0.1-0.2l0,0
	C1.1,43.1,1,42.9,1,42.8c0-0.2,0-0.5,0-0.7c0,0,0-0.1,0-0.1l-0.1-0.2c-0.1-0.1-0.2-0.3-0.1-0.5c0-0.2,0-0.3,0.1-0.5c0,0,0-0.1,0-0.2
	c-0.1-0.2,0-0.4,0.1-0.6c0-0.1-0.2-0.2-0.2-0.3s0.1-0.2,0.2-0.3l-0.2-0.1c0-0.1,0.1-0.2,0.1-0.3c0-0.1,0-0.2,0-0.3
	c0-0.1,0-0.2,0.1-0.3c0-0.1,0-0.2,0-0.3c0-0.1,0.1-0.2,0.1-0.3S1,37.9,1,37.9c0-0.1,0.1-0.2,0.2-0.3c0.1-0.1,0.1-0.1,0.1-0.2
	c0,0,0,0,0-0.1c0.1-0.1,0.2-0.2,0.2-0.4c0-0.1,0.1-0.2,0.2-0.3c0,0,0.1,0,0.1-0.1c0-0.1,0.1-0.3,0.2-0.4c0,0,0,0,0-0.1
	S2.1,36,2.2,36c0-0.1,0.1-0.2,0.1-0.2l0.2,0.1c0.1-0.1,0.1-0.2,0.3-0.3s0.1-0.1,0.1-0.1s0.1-0.2,0.2-0.2l0,0C3,35.1,3.1,35,3.1,35
	s0.2-0.2,0.3-0.3c0,0,0,0,0.1,0c0.2,0,0.2-0.1,0.2-0.3l0.1,0.1c0.1-0.2,0.1-0.4,0.3-0.4c0-0.3,0-0.6,0.1-0.9c0-0.2,0-0.3,0.1-0.5
	c0-0.2,0.1-0.3,0.1-0.5c0-0.1,0-0.1,0-0.2c0-0.1,0-0.1,0-0.2c0,0,0-0.1,0.1-0.1c0-0.1,0-0.2,0.1-0.3c0,0,0,0,0-0.1
	c0-0.2,0.1-0.3,0.1-0.4s0.1-0.3,0-0.5s0-0.1,0.1-0.1C4.9,30.2,5,30,5.1,29.9c0-0.1,0-0.2,0-0.3c0.1-0.2,0.1-0.3,0.1-0.5
	c0-0.1,0-0.2,0.1-0.3l0,0c-0.1-0.3,0.1-0.5,0.1-0.7c0-0.1,0.1-0.3,0.1-0.4c0-0.1,0-0.2,0.2-0.3s0,0,0-0.1c0-0.2,0.1-0.4,0.2-0.5
	c0,0,0.1-0.1,0.1-0.1c0-0.1,0.1-0.2,0.2-0.2c0,0,0.1,0,0.1-0.1c0-0.2,0.3-0.3,0.3-0.5c0.1,0,0.2,0,0.2-0.2s0.1-0.1,0.1-0.1
	c0.1-0.2,0.1-0.3,0.4-0.3c0.1,0,0.1-0.1,0.2-0.1c0.1-0.1,0.2-0.2,0.2-0.3h0.2l0.3-0.4l0,0c0.3-0.1,0.5-0.4,0.8-0.5
	c0.2-0.1,0.4-0.3,0.6-0.4c0.1-0.1,0.1-0.1,0.2-0.1c0.1,0,0.2-0.1,0.3-0.2c0.1-0.2,0.4-0.3,0.6-0.3c0.1-0.2,0.2-0.3,0.4-0.3
	c0.1,0,0.2-0.1,0.3-0.1h0.2c0-0.1,0.1-0.3,0.3-0.3l0,0c0.1-0.2,0.4-0.1,0.6-0.2c0.1-0.3,0.5-0.3,0.7-0.4c0.1,0,0.2-0.1,0.2-0.2
	c0.1,0.1,0.2,0.2,0.3,0.1c0.1,0,0.3-0.1,0.4-0.2c0.1,0,0.2-0.1,0.3,0c0.1-0.2,0.3-0.2,0.5-0.1c0,0,0,0,0,0c0,0,0.1,0,0.1,0h0.1
	c0.2,0,0.3,0,0.5-0.2c0,0,0.1,0.1,0.1,0.1s0.1-0.1,0.1-0.1c0.2,0.1,0.3,0.1,0.5,0c0.2,0,0.4-0.1,0.6-0.1c0.1,0,0.2,0,0.3,0
	s0.2,0,0.2-0.1s0.1,0,0.2,0.1c0.1-0.2,0.4-0.3,0.6-0.2c0.1,0,0.1,0,0.2,0c0.1,0,0.2,0,0.3,0.1h0.2c0.1,0,0.1-0.1,0.1-0.1
	c0.1-0.1,0.3-0.1,0.4,0c0,0,0,0,0,0c0.2-0.1,0.4-0.1,0.5,0.1c0,0,0.1,0,0.1,0c0.1-0.1,0.2-0.2,0.3-0.3h0.2h0.1c0.1,0.1,0.2,0,0.2,0
	l0.1,0.2c0.1,0,0.2,0,0.3-0.1c0.1,0.1,0.2-0.1,0.3,0s0.2,0,0.3,0l0.3,0.1v0.1l0.1-0.2l0.1,0.2c0.1,0,0.2-0.1,0.3-0.1
	s0.2,0.1,0.3,0.2s0.1,0,0.1,0s0.2,0,0.2,0c0.2,0.1,0.4,0.2,0.7,0.2c0.1,0,0.1-0.1,0.2-0.1s0.1,0.1,0.2,0.2c0,0,0.1,0.1,0.1,0
	c0,0,0,0,0,0c0,0,0.1,0,0.1,0c0.2,0,0.3,0,0.5-0.1c0.2-0.1,0.3-0.1,0.5-0.2c0.1,0,0.2-0.1,0.4-0.1h0.1c0.1,0.1,0.2,0.1,0.3,0
	c0.3,0,0.6-0.1,0.8-0.2c0.1,0,0.2,0,0.3-0.1v0.1c0.1-0.1,0.3-0.2,0.5-0.2c0,0,0.1,0,0.1-0.1c0.1-0.1,0.2-0.1,0.3-0.1
	c0.2,0,0.3,0,0.4-0.2s0,0,0.1,0c0.2,0,0.4,0,0.6-0.1c0,0,0.1,0,0.1,0c0.1,0,0.2,0,0.3-0.1c0,0,0.1-0.1,0.2-0.1c0.2,0,0.5,0,0.7-0.1
	c0.3-0.1,0.6-0.2,0.9-0.2c0.2-0.1,0.4-0.1,0.5-0.1c0.1,0,0.2,0,0.2-0.1c0.1,0,0.2-0.1,0.2-0.1c0,0,0.1,0,0.1-0.1
	c0.1-0.1,0.1-0.1,0.2-0.2c0.1,0,0.1-0.1,0.1-0.1c0-0.1,0-0.2,0.1-0.4c0-0.1,0.1-0.2,0.2-0.3c0.2-0.2,0.3-0.4,0.3-0.6
	c0-0.1,0.1-0.1,0.1-0.2c0.1-0.1,0.2-0.3,0.3-0.5c0.1-0.2,0.1-0.5,0.3-0.7c0.1-0.2,0.3-0.4,0.3-0.6c0,0,0,0,0-0.1
	c0.2-0.1,0.3-0.3,0.3-0.5c0-0.1,0-0.2,0.1-0.3c0-0.2,0.3-0.3,0.2-0.6l0,0c0.1-0.2,0.2-0.3,0.3-0.5c0.1-0.1,0.1-0.2,0.2-0.3
	c0-0.2,0.2-0.4,0.2-0.5c0-0.1,0.1-0.2,0.1-0.2h0.1c0,0,0,0,0-0.1c0-0.2,0.1-0.3,0.2-0.4c0.1-0.1,0.1-0.1,0.1-0.2
	c0-0.2,0.2-0.3,0.3-0.4c0.1-0.2,0.1-0.4,0.2-0.6s0.1-0.2,0.1-0.3c0-0.1,0.1-0.2,0.1-0.2c0.2-0.2,0.3-0.4,0.4-0.6c0,0,0-0.1,0-0.1
	c0.1-0.1,0.2-0.2,0.3-0.4c0.1-0.1,0.1-0.3,0.2-0.4c0,0,0-0.1,0-0.1c0.1-0.1,0.2-0.3,0.2-0.5c0-0.1,0.1-0.1,0.2-0.2
	c0.2,0,0.2-0.2,0.4-0.3c0.1-0.1,0.2-0.3,0.3-0.4c0.1-0.2,0.2-0.2,0.3-0.3c0.1-0.1,0.2-0.1,0.2-0.2c0,0,0-0.1,0.1-0.1
	c0.2-0.1,0.2-0.2,0.3-0.4c0.1-0.3,0.2-0.7,0.3-1l0.1-0.1c0,0,0.1-0.1,0.1-0.1c0-0.1,0.1-0.2,0.2-0.2c0.1,0,0.1-0.1,0.2-0.2
	c0.1-0.1,0.2-0.3,0.3-0.5c0,0,0.1-0.1,0.1-0.1c-0.1-0.1-0.2-0.3-0.2-0.5c0-0.2,0-0.3,0-0.5c0-0.2,0-0.4,0.1-0.5c0-0.1,0-0.2,0-0.3
	s0-0.1,0.1-0.2c0.1-0.1,0-0.1,0-0.1V2c0-0.1,0-0.2,0.1-0.3l0,0c0-0.2,0.1-0.4,0.2-0.6c0,0,0-0.1,0.1-0.1l0.1-0.2
	c0.1-0.1,0.1-0.2,0.2-0.2c0.1,0,0.1-0.1,0.1-0.1c0.1-0.2,0.2-0.3,0.4-0.4c0.2-0.2,0.4,0,0.6,0c0,0,0.1,0,0.1,0.1
	c0,0.1,0.1,0.1,0.1,0.1c0.1,0,0.3,0.1,0.4,0.2c0.1,0.1,0.2,0.1,0.2,0.2c0.1,0.1,0.1,0.2,0.2,0.3c0.1,0.1,0.2,0.1,0.2,0.2
	c0.1,0.4,0.4,0.5,0.6,0.8c0.1,0.2,0.3,0.3,0.4,0.4c0.1,0.2,0.4,0.3,0.6,0.4c0.1,0,0.1,0.1,0.2,0.1c0,0,0,0,0.1,0
	c0.3,0.1,0.6,0.1,0.8,0c0.2,0,0.4,0,0.6,0c0.1,0,0.2,0,0.2,0c0.1,0,0.2,0,0.3,0c0.1,0,0.1,0,0.2,0c0.1,0,0.2,0,0.2,0
	c0.2,0,0.4,0,0.6,0s0.5,0,0.7-0.1c0.2,0,0.3,0,0.5-0.1c0.2-0.1,0.4-0.2,0.5-0.3s0.4-0.3,0.6-0.5c0.1-0.1,0.2-0.2,0.3-0.4
	c0.2-0.2,0.4-0.4,0.6-0.6c0.2-0.2,0.1-0.2,0.2-0.3c0.1-0.1,0.2-0.1,0.3-0.2c0.2-0.1,0.5,0,0.7,0.1c0,0.1,0.1,0.1,0.1,0.2
	c0,0.1,0,0.3,0.1,0.4c0.1,0.1,0.1,0.2,0,0.3c-0.1,0.1-0.1,0.2-0.1,0.3l-0.1,0.6c0,0.1,0,0.3-0.1,0.4c-0.1,0.1,0,0.4-0.1,0.6
	c0,0.2,0,0.4,0.1,0.5c0,0,0.1,0.1,0.1,0.1h0.1c0.1,0.2,0.4,0.2,0.5,0.4c0,0,0.1,0,0.1,0.1c0.1,0,0.1,0,0.2,0.1
	c0.2,0.2,0.5,0.4,0.8,0.5l0.5,0.4c0.1,0.1,0.2,0.1,0.2,0.2l0,0c0.2,0.1,0.2,0.3,0.4,0.4c0,0,0.1,0.1,0.1,0.2c0,0,0,0.1,0.1,0.1
	c0.1,0,0.1,0.2,0.2,0.4c0,0.1,0.1,0.5,0.1,0.8c0,0,0,0,0,0.1C57,7.8,57.1,8,57.1,8.3c0,0.2,0,0.4,0.1,0.6s0.1,0.4,0.1,0.6
	c0,0.2,0.1,0.5,0.1,0.7c0,0,0,0,0.1,0.1c0.1,0.1,0.1,0.2,0.1,0.3c0,0.1,0,0.2,0,0.3c0,0.1,0,0.3-0.1,0.4c-0.1,0.1,0,0,0,0
	c0,0.2,0,0.4,0,0.6c0,0.2,0,0.4-0.1,0.6c0,0.2-0.1,0.4-0.1,0.5s0,0.1-0.1,0.1c0,0.1-0.1,0.2-0.1,0.3c0,0-0.1,0.1-0.1,0.1
	c0,0-0.1,0.1-0.1,0.1c-0.1,0.3-0.2,0.6-0.2,0.8c0,0.2,0,0.3-0.1,0.5l-0.1,0.5c0,0.1,0.1,0.3,0.1,0.4c0,0,0.1,0.1,0.1,0.1
	c0.1,0.1,0,0.2,0,0.2c0,0,0,0,0,0L60.4,63z"/>
<linearGradient id="SVGID_00000090252423883773072550000012416770038215748539_" gradientUnits="userSpaceOnUse" x1="25.54" y1="32.38" x2="25.79" y2="32.38" gradientTransform="matrix(1 0 0 -1 -4.83 79.86)">
	<stop  offset="0" style="stop-color:#DD1FFF"/>
	<stop  offset="1" style="stop-color:#5F8CFB"/>
</linearGradient>
<path style="fill:url(#SVGID_00000090252423883773072550000012416770038215748539_);" d="M20.8,47.3l0.1,0.1l-0.1,0.3h-0.2
	C20.7,47.5,20.7,47.4,20.8,47.3z"/>
<g class="st0">
	<path class="st1" d="M227.4,84.9c1,0.6,1.6,2,1.6,3.8v0.6c0,2.5-1.2,4.2-3.1,4.2h-12.2V76.4h12.2c1.9,0,3.1,1.7,3.1,4.2v0.6
		C229,82.9,228.4,84.3,227.4,84.9z M216.4,83.6h9.2c0.3,0,0.6-0.4,0.6-0.8v-3c0-0.5-0.3-0.8-0.6-0.8h-9.2V83.6z M226.2,87
		c0-0.5-0.3-0.8-0.6-0.8h-5.1v0h-4v4.6h9.2c0.3,0,0.6-0.4,0.6-0.8V87z"/>
	<path class="st1" d="M232.9,79.8v3.8h8.6v2.6h-8.6v3.7c0,0.5,0.3,0.8,0.6,0.8h9.2v2.6h-8.8c-2.2,0-3.8-2-3.8-5v-6.9
		c0-3,1.5-5,3.8-5h8.8V79h-9.2C233.2,79,232.9,79.4,232.9,79.8z"/>
	<path class="st1" d="M258.7,79h-6.3v14.4h-2.8V79h-6.3v-2.6h15.3V79z"/>
	<path class="st1" d="M265.9,88.8H260l-1.8,4.6h-2.8l6.2-15.5l0.6-1.5h1.6l0.6,1.5l6.2,15.5h-2.8L265.9,88.8z M264.9,86.2l-1.9-4.9
		l-1.9,4.9H264.9z"/>
</g>
</svg>
