<svg version="1.2" xmlns="http://www.w3.org/2000/svg" viewBox="0 0 47 42" width="47" height="42"><defs><clipPath clipPathUnits="userSpaceOnUse" id="cp1"><path d="m-68-52h1728v1117h-1728z"/></clipPath></defs><style>.a{fill:#fff;stroke:#ededed;stroke-width:0}</style><g clip-path="url(#cp1)"><path class="a" d="m42.2 10.8q0 0.7 0 1.3c0 13.6-9.7 29.2-27.4 29.2-5.5 0-10.5-1.7-14.8-4.6 0.8 0.1 1.5 0.1 2.3 0.1 4.5 0 8.7-1.6 12-4.3-4.2-0.1-7.8-3.1-9-7.2q0.9 0.2 1.8 0.2c0.9 0 1.7-0.1 2.5-0.3-4.4-1-7.7-5.1-7.7-10.1v-0.1c1.3 0.7 2.8 1.2 4.4 1.3-2.6-1.9-4.3-5-4.3-8.6 0-1.9 0.4-3.6 1.3-5.1 4.7 6.2 11.8 10.2 19.8 10.7q-0.2-1.2-0.2-2.4c0-5.6 4.3-10.2 9.6-10.2 2.8 0 5.3 1.2 7.1 3.2 2.2-0.4 4.2-1.3 6.1-2.4-0.7 2.3-2.2 4.3-4.2 5.6 1.9-0.2 3.8-0.8 5.5-1.6-1.3 2-3 3.9-4.8 5.3z"/></g></svg>